<?xml version="1.0" encoding="UTF-8"?>
<svg id="Layer_1" data-name="Layer 1" xmlns="http://www.w3.org/2000/svg" xmlns:xlink="http://www.w3.org/1999/xlink" viewBox="0 0 473.3 242.79">
  <defs>
    <clipPath id="clippath">
      <rect x="54.26" y="69.5" width="41.94" height="41.08" fill="none"/>
    </clipPath>
    <clipPath id="clippath-1">
      <path d="M129.78,70.14c0,.36.29.65.65.65h0c.36,0,.65-.29.65-.65h0c0-.36-.29-.65-.65-.65h0c-.36,0-.65.29-.65.65ZM125.88,69.5v1.95c0,.36.29.65.65.65h0c.36,0,.65-.29.65-.65h0v-1.3c0-.36-.29-.65-.65-.65h-.65ZM124.59,69.5v1.3h1.3v-1.3h-1.3ZM123.29,69.5v1.3h1.3v-1.3h-1.3ZM122.64,69.5c-.36,0-.65.29-.65.65h0v1.95h.65c.36,0,.65-.29.65-.65h0v-1.95h-.65ZM115.5,70.14v2.6c0,.36.29.65.65.65h.65v-3.25c0-.36-.29-.65-.65-.65h0c-.36,0-.65.29-.65.65ZM112.9,70.14v1.95h1.3v-1.95c0-.36-.29-.65-.65-.65h0c-.36,0-.65.29-.65.65ZM110.3,70.14v3.25h.65c.36,0,.65-.29.65-.65h0v-2.6c0-.36-.29-.65-.65-.65h0c-.36,0-.65.29-.65.65ZM128.48,71.44v1.95h.65c.36,0,.65-.29.65-.65h0v-1.3c0-.36-.29-.65-.65-.65h0c-.36,0-.65.29-.65.65ZM120.69,70.79v1.3h1.3v-1.3h-1.3ZM120.04,70.79c-.36,0-.65.29-.65.65h0c0,.36.29.65.65.65h.65v-1.3h-.65ZM116.8,70.79v5.19h.65c.36,0,.65-.29.65-.65h0v-3.9c0-.36-.29-.65-.65-.65h-.65ZM114.2,70.79v1.3h1.3v-1.3h-1.3ZM111.6,70.79v1.3h1.3v-1.3h-1.3ZM109.65,70.79c-.36,0-.65.29-.65.65h0v2.6c0,.36.29.65.65.65h0c.36,0,.65-.29.65-.65h0v-3.25h-.65ZM127.83,72.09c-.36,0-.65.29-.65.65h0v1.95h.65c.36,0,.65-.29.65-.65h0v-1.95h-.65ZM118.09,72.09v2.6h1.3v-1.95c0-.36-.29-.65-.65-.65h-.65ZM125.88,73.39v2.6h.65c.36,0,.65-.29.65-.65h0v-1.95h-1.3ZM124.59,73.39v4.54c0,.36.29.65.65.65h0c.36,0,.65-.29.65-.65h0v-4.54h-1.3ZM123.94,73.39c-.36,0-.65.29-.65.65h0v1.3c0,.36.29.65.65.65h.65v-2.6h-.65ZM120.69,73.39v1.3h.65c.36,0,.65-.29.65-.65h0c0-.36-.29-.65-.65-.65h-.65ZM119.39,73.39v7.14c0,.36.29.65.65.65h0c.36,0,.65-.29.65-.65h0v-7.14h-1.3ZM112.9,73.39v1.3h.65c.36,0,.65-.29.65-.65h0c0-.36-.29-.65-.65-.65h-.65ZM112.25,73.39c-.36,0-.65.29-.65.65h0c0,.36.29.65.65.65h.65v-1.3h-.65ZM129.78,75.34v3.9c0,.36.29.65.65.65h0c.36,0,.65-.29.65-.65h0v-3.9c0-.36-.29-.65-.65-.65h0c-.36,0-.65.29-.65.65ZM116.15,74.69c-.36,0-.65.29-.65.65h0c0,.36.29.65.65.65h.65v-1.3h-.65ZM127.18,76.64v4.54h.65c.36,0,.65-.29.65-.65h0v-3.89c0-.36-.29-.65-.65-.65h0c-.36,0-.65.29-.65.65ZM120.69,75.99v1.3h.65c.36,0,.65-.29.65-.65h0c0-.36-.29-.65-.65-.65h-.65ZM114.2,75.99v1.95c0,.36.29.65.65.65h0c.36,0,.65-.29.65-.65h0v-1.3c0-.36-.29-.65-.65-.65h-.65ZM112.9,75.99v1.3h1.3v-1.3h-1.3ZM112.25,75.99c-.36,0-.65.29-.65.65h0v1.3c0,.36.29.65.65.65h0c.36,0,.65-.29.65-.65h0v-1.95h-.65ZM109.01,76.64v1.3c0,.36.29.65.65.65h0c.36,0,.65-.29.65-.65h0v-1.3c0-.36-.29-.65-.65-.65h0c-.36,0-.65.29-.65.65ZM121.99,77.93c0,.36.29.65.65.65h0c.36,0,.65-.29.65-.65h0c0-.36-.29-.65-.65-.65h0c-.36,0-.65.29-.65.65ZM116.8,77.93c0,.36.29.65.65.65h0c.36,0,.65-.29.65-.65h0c0-.36-.29-.65-.65-.65h0c-.36,0-.65.29-.65.65ZM123.29,79.23v2.6c0,.36.29.65.65.65h0c.36,0,.65-.29.65-.65h0v-2.6c0-.36-.29-.65-.65-.65h0c-.36,0-.65.29-.65.65ZM115.5,79.23v8.44h1.3v-8.44c0-.36-.29-.65-.65-.65h0c-.36,0-.65.29-.65.65ZM138.87,79.88v3.25c0,.36.29.65.65.65h0c.36,0,.65-.29.65-.65h0v-2.6c0-.36-.29-.65-.65-.65h-.65ZM137.57,79.88v1.3h1.3v-1.3h-1.3ZM136.92,79.88c-.36,0-.65.29-.65.65h0c0,.36.29.65.65.65h.65v-1.3h-.65ZM133.67,80.53v4.54h1.3v-4.54c0-.36-.29-.65-.65-.65h0c-.36,0-.65.29-.65.65ZM131.08,80.53c0,.36.29.65.65.65h0c.36,0,.65-.29.65-.65h0c0-.36-.29-.65-.65-.65h0c-.36,0-.65.29-.65.65ZM125.88,79.88v1.95c0,.36.29.65.65.65h0c.36,0,.65-.29.65-.65h0v-1.95h-1.3ZM124.59,79.88v1.3h1.3v-1.3h-1.3ZM114.2,79.88v3.25c0,.36.29.65.65.65h.65v-3.89h-1.3ZM113.55,79.88c-.36,0-.65.29-.65.65h0v1.95h1.3v-2.6h-.65ZM110.3,80.53c0,.36.29.65.65.65h0c.36,0,.65-.29.65-.65h0c0-.36-.29-.65-.65-.65h0c-.36,0-.65.29-.65.65ZM106.41,80.53c0,.36.29.65.65.65h0c.36,0,.65-.29.65-.65h0c0-.36-.29-.65-.65-.65h0c-.36,0-.65.29-.65.65ZM101.22,79.88v1.3h.65c.36,0,.65-.29.65-.65h0c0-.36-.29-.65-.65-.65h-.65ZM100.57,79.88c-.36,0-.65.29-.65.65h0v10.39c0,.36.29.65.65.65h.65v-11.69h-.65ZM134.97,81.18v3.9h.65c.36,0,.65-.29.65-.65h0v-2.6c0-.36-.29-.65-.65-.65h-.65ZM129.78,81.18v1.3h.65c.36,0,.65-.29.65-.65h0c0-.36-.29-.65-.65-.65h-.65ZM129.13,81.18c-.36,0-.65.29-.65.65h0c0,.36.29.65.65.65h.65v-1.3h-.65ZM120.69,81.83v4.54h.65c.36,0,.65-.29.65-.65h0v-3.9c0-.36-.29-.65-.65-.65h0c-.36,0-.65.29-.65.65ZM116.8,81.18v1.3h.65c.36,0,.65-.29.65-.65h0c0-.36-.29-.65-.65-.65h-.65ZM112.25,81.18c-.36,0-.65.29-.65.65h0v1.3c0,.36.29.65.65.65h0c.36,0,.65-.29.65-.65h0v-1.95h-.65ZM109.01,81.83v1.95h.65c.36,0,.65-.29.65-.65h0v-1.3c0-.36-.29-.65-.65-.65h0c-.36,0-.65.29-.65.65ZM132.38,82.48v2.6h1.3v-2.6h-1.3ZM131.73,82.48c-.36,0-.65.29-.65.65h0v1.95h1.3v-2.6h-.65ZM127.18,83.13v3.25h.65c.36,0,.65-.29.65-.65h0v-2.6c0-.36-.29-.65-.65-.65h0c-.36,0-.65.29-.65.65ZM124.59,83.13c0,.36.29.65.65.65h0c.36,0,.65-.29.65-.65h0c0-.36-.29-.65-.65-.65h0c-.36,0-.65.29-.65.65ZM118.09,83.13c0,.36.29.65.65.65h0c.36,0,.65-.29.65-.65h0c0-.36-.29-.65-.65-.65h0c-.36,0-.65.29-.65.65ZM107.71,82.48v6.49h.65c.36,0,.65-.29.65-.65h0v-5.84h-1.3ZM106.41,82.48v1.3h1.3v-1.3h-1.3ZM105.76,82.48c-.36,0-.65.29-.65.65h0c0,.36.29.65.65.65h.65v-1.3h-.65ZM99.27,82.48c-.36,0-.65.29-.65.65h0c0,.36.29.65.65.65h.65v-1.3h-.65ZM137.57,84.43v2.6c0,.36.29.65.65.65h.65v-3.25c0-.36-.29-.65-.65-.65h0c-.36,0-.65.29-.65.65ZM130.43,83.78c-.36,0-.65.29-.65.65h0c0,.36.29.65.65.65h.65v-1.3h-.65ZM126.53,83.78c-.36,0-.65.29-.65.65h0v6.49c0,.36.29.65.65.65h0c.36,0,.65-.29.65-.65h0v-7.14h-.65ZM121.99,83.78v1.3h.65c.36,0,.65-.29.65-.65h0c0-.36-.29-.65-.65-.65h-.65ZM120.04,83.78c-.36,0-.65.29-.65.65h0v2.6c0,.36.29.65.65.65h0c.36,0,.65-.29.65-.65h0v-3.25h-.65ZM116.8,83.78v1.3h.65c.36,0,.65-.29.65-.65h0c0-.36-.29-.65-.65-.65h-.65ZM103.81,84.43c0,.36.29.65.65.65h0c.36,0,.65-.29.65-.65h0c0-.36-.29-.65-.65-.65h0c-.36,0-.65.29-.65.65ZM101.22,83.78v2.6h.65c.36,0,.65-.29.65-.65h0v-1.3c0-.36-.29-.65-.65-.65h-.65ZM140.17,85.72v1.95h.65c.36,0,.65-.29.65-.65h0v-1.3c0-.36-.29-.65-.65-.65h0c-.36,0-.65.29-.65.65ZM136.92,85.08c-.36,0-.65.29-.65.65h0c0,.36.29.65.65.65h.65v-1.3h-.65ZM124.59,85.08v1.3h1.3v-1.3h-1.3ZM123.94,85.08c-.36,0-.65.29-.65.65h0c0,.36.29.65.65.65h.65v-1.3h-.65ZM114.2,85.08v3.25c0,.36.29.65.65.65h0c.36,0,.65-.29.65-.65h0v-3.25h-1.3ZM113.55,85.08c-.36,0-.65.29-.65.65h0v1.3c0,.36.29.65.65.65h.65v-2.6h-.65ZM109.01,85.08v2.6h.65c.36,0,.65-.29.65-.65h0v-1.3c0-.36-.29-.65-.65-.65h-.65ZM107.06,85.08c-.36,0-.65.29-.65.65h0c0,.36.29.65.65.65h.65v-1.3h-.65ZM99.27,85.08c-.36,0-.65.29-.65.65h0v1.3c0,.36.29.65.65.65h.65v-2.6h-.65ZM138.87,86.37v3.25c0,.36.29.65.65.65h.65v-3.9h-1.3ZM134.97,87.02c0,.36.29.65.65.65h0c.36,0,.65-.29.65-.65h0c0-.36-.29-.65-.65-.65h0c-.36,0-.65.29-.65.65ZM132.38,87.02c0,.36.29.65.65.65h0c.36,0,.65-.29.65-.65h0c0-.36-.29-.65-.65-.65h0c-.36,0-.65.29-.65.65ZM129.78,86.37v1.3h.65c.36,0,.65-.29.65-.65h0c0-.36-.29-.65-.65-.65h-.65ZM129.13,86.37c-.36,0-.65.29-.65.65h0v2.6c0,.36.29.65.65.65h.65v-3.9h-.65ZM116.8,86.37v1.95c0,.36.29.65.65.65h.65v-1.95c0-.36-.29-.65-.65-.65h-.65ZM103.81,87.02c0,.36.29.65.65.65h0c.36,0,.65-.29.65-.65h0c0-.36-.29-.65-.65-.65h0c-.36,0-.65.29-.65.65ZM133.67,88.32v5.84h1.3v-5.84c0-.36-.29-.65-.65-.65h0c-.36,0-.65.29-.65.65ZM131.08,88.32c0,.36.29.65.65.65h0c.36,0,.65-.29.65-.65h0c0-.36-.29-.65-.65-.65h0c-.36,0-.65.29-.65.65ZM121.99,87.67v1.95c0,.36.29.65.65.65h.65v-1.95c0-.36-.29-.65-.65-.65h-.65ZM121.34,87.67c-.36,0-.65.29-.65.65h0c0,.36.29.65.65.65h.65v-1.3h-.65ZM118.09,87.67v1.3h.65c.36,0,.65-.29.65-.65h0c0-.36-.29-.65-.65-.65h-.65ZM106.41,87.67v1.3h1.3v-1.3h-1.3ZM105.76,87.67c-.36,0-.65.29-.65.65h0c0,.36.29.65.65.65h.65v-1.3h-.65ZM140.17,88.97v1.3h.65c.36,0,.65-.29.65-.65h0c0-.36-.29-.65-.65-.65h-.65ZM133.02,88.97c-.36,0-.65.29-.65.65h0v1.95h1.3v-2.6h-.65ZM129.78,88.97v5.19h.65c.36,0,.65-.29.65-.65h0v-3.9c0-.36-.29-.65-.65-.65h-.65ZM124.59,88.97v1.3h1.3v-1.3h-1.3ZM123.29,88.97v1.3h1.3v-1.3h-1.3ZM119.39,89.62c0,.36.29.65.65.65h0c.36,0,.65-.29.65-.65h0c0-.36-.29-.65-.65-.65h0c-.36,0-.65.29-.65.65ZM110.3,88.97v1.3h.65c.36,0,.65-.29.65-.65h0c0-.36-.29-.65-.65-.65h-.65ZM109.65,88.97c-.36,0-.65.29-.65.65h0c0,.36.29.65.65.65h.65v-1.3h-.65ZM101.22,88.97v2.6h.65c.36,0,.65-.29.65-.65h0v-1.3c0-.36-.29-.65-.65-.65h-.65ZM136.27,90.92c0,.36.29.65.65.65h0c.36,0,.65-.29.65-.65h0c0-.36-.29-.65-.65-.65h0c-.36,0-.65.29-.65.65ZM131.08,90.27v1.3h1.3v-1.3h-1.3ZM120.69,90.92v1.95h1.3v-1.95c0-.36-.29-.65-.65-.65h0c-.36,0-.65.29-.65.65ZM115.5,90.27v1.3h.65c.36,0,.65-.29.65-.65h0c0-.36-.29-.65-.65-.65h-.65ZM114.2,90.27v1.3h1.3v-1.3h-1.3ZM113.55,90.27c-.36,0-.65.29-.65.65h0v1.3c0,.36.29.65.65.65h0c.36,0,.65-.29.65-.65h0v-1.95h-.65ZM107.71,90.27v1.95c0,.36.29.65.65.65h0c.36,0,.65-.29.65-.65h0v-1.3c0-.36-.29-.65-.65-.65h-.65ZM106.41,90.27v1.3h1.3v-1.3h-1.3ZM105.11,90.27v1.3h1.3v-1.3h-1.3ZM104.46,90.27c-.36,0-.65.29-.65.65h0v1.3c0,.36.29.65.65.65h0c.36,0,.65-.29.65-.65h0v-1.95h-.65ZM137.57,92.22c0,.36.29.65.65.65h0c.36,0,.65-.29.65-.65h0c0-.36-.29-.65-.65-.65h0c-.36,0-.65.29-.65.65ZM128.48,91.57v5.19h.65c.36,0,.65-.29.65-.65h0v-4.54h-1.3ZM127.83,91.57c-.36,0-.65.29-.65.65h0c0,.36.29.65.65.65h.65v-1.3h-.65ZM121.99,91.57v1.3h.65c.36,0,.65-.29.65-.65h0c0-.36-.29-.65-.65-.65h-.65ZM119.39,91.57v7.14c0,.36.29.65.65.65h.65v-7.79h-1.3ZM118.74,91.57c-.36,0-.65.29-.65.65h0v1.95h1.3v-2.6h-.65ZM110.3,92.22v5.84h1.3v-5.84c0-.36-.29-.65-.65-.65h0c-.36,0-.65.29-.65.65ZM98.62,92.22c0,.36.29.65.65.65h0c.36,0,.65-.29.65-.65h0c0-.36-.29-.65-.65-.65h0c-.36,0-.65.29-.65.65ZM140.17,92.87v1.95c0,.36.29.65.65.65h0c.36,0,.65-.29.65-.65h0v-1.3c0-.36-.29-.65-.65-.65h-.65ZM139.52,92.87c-.36,0-.65.29-.65.65h0c0,.36.29.65.65.65h.65v-1.3h-.65ZM134.97,92.87v1.95c0,.36.29.65.65.65h0c.36,0,.65-.29.65-.65h0v-1.3c0-.36-.29-.65-.65-.65h-.65ZM133.02,92.87c-.36,0-.65.29-.65.65h0v3.25h1.3v-3.9h-.65ZM117.44,92.87c-.36,0-.65.29-.65.65h0v4.54h1.3v-5.19h-.65ZM111.6,92.87v1.3h.65c.36,0,.65-.29.65-.65h0c0-.36-.29-.65-.65-.65h-.65ZM109.65,92.87c-.36,0-.65.29-.65.65h0v1.95h1.3v-2.6h-.65ZM106.41,92.87v1.3h.65c.36,0,.65-.29.65-.65h0c0-.36-.29-.65-.65-.65h-.65ZM105.76,92.87c-.36,0-.65.29-.65.65h0v5.84h1.3v-6.49h-.65ZM102.51,92.87v1.95c0,.36.29.65.65.65h.65v-1.95c0-.36-.29-.65-.65-.65h-.65ZM101.22,92.87v1.3h1.3v-1.3h-1.3ZM100.57,92.87c-.36,0-.65.29-.65.65h0c0,.36.29.65.65.65h.65v-1.3h-.65ZM131.73,94.16c-.36,0-.65.29-.65.65h0v2.6c0,.36.29.65.65.65h0c.36,0,.65-.29.65-.65h0v-3.25h-.65ZM125.88,94.81v3.25h1.3v-3.25c0-.36-.29-.65-.65-.65h0c-.36,0-.65.29-.65.65ZM123.29,94.81c0,.36.29.65.65.65h0c.36,0,.65-.29.65-.65h0c0-.36-.29-.65-.65-.65h0c-.36,0-.65.29-.65.65ZM120.69,94.16v10.39h.65c.36,0,.65-.29.65-.65h0v-9.09c0-.36-.29-.65-.65-.65h-.65ZM115.5,94.16v1.3h1.3v-1.3h-1.3ZM114.2,94.16v1.3h1.3v-1.3h-1.3ZM113.55,94.16c-.36,0-.65.29-.65.65h0c0,.36.29.65.65.65h.65v-1.3h-.65ZM108.36,94.16c-.36,0-.65.29-.65.65h0v1.95h.65c.36,0,.65-.29.65-.65h0v-1.95h-.65ZM103.81,94.16v1.95c0,.36.29.65.65.65h.65v-2.6h-1.3ZM98.62,94.81v1.3c0,.36.29.65.65.65h.65v-1.95c0-.36-.29-.65-.65-.65h0c-.36,0-.65.29-.65.65ZM138.87,95.46v1.3h.65c.36,0,.65-.29.65-.65h0c0-.36-.29-.65-.65-.65h-.65ZM137.57,95.46v1.3h1.3v-1.3h-1.3ZM136.92,95.46c-.36,0-.65.29-.65.65h0v4.54h.65c.36,0,.65-.29.65-.65h0v-4.54h-.65ZM133.67,95.46v6.49h1.3v-5.84c0-.36-.29-.65-.65-.65h-.65ZM127.18,95.46v2.6h.65c.36,0,.65-.29.65-.65h0v-1.95h-1.3ZM121.99,95.46v1.3h.65c.36,0,.65-.29.65-.65h0c0-.36-.29-.65-.65-.65h-.65ZM106.41,95.46v1.3h1.3v-1.3h-1.3ZM101.22,95.46v1.3h.65c.36,0,.65-.29.65-.65h0c0-.36-.29-.65-.65-.65h-.65ZM99.92,95.46v5.84c0,.36.29.65.65.65h.65v-6.49h-1.3ZM140.17,97.41c0,.36.29.65.65.65h0c.36,0,.65-.29.65-.65h0c0-.36-.29-.65-.65-.65h0c-.36,0-.65.29-.65.65ZM134.97,96.76v10.39h.65c.36,0,.65-.29.65-.65h0v-9.74h-1.3ZM125.23,96.76c-.36,0-.65.29-.65.65h0c0,.36.29.65.65.65h.65v-1.3h-.65ZM118.09,96.76v1.3h1.3v-1.3h-1.3ZM116.15,96.76c-.36,0-.65.29-.65.65h0c0,.36.29.65.65.65h.65v-1.3h-.65ZM111.6,96.76v1.3h.65c.36,0,.65-.29.65-.65h0c0-.36-.29-.65-.65-.65h-.65ZM109.65,96.76c-.36,0-.65.29-.65.65h0v1.3c0,.36.29.65.65.65h0c.36,0,.65-.29.65-.65h0v-1.95h-.65ZM138.87,98.06v3.25c0,.36.29.65.65.65h0c.36,0,.65-.29.65-.65h0v-2.6c0-.36-.29-.65-.65-.65h-.65ZM137.57,98.06v1.3h1.3v-1.3h-1.3ZM129.78,98.71v8.44h1.3v-8.44c0-.36-.29-.65-.65-.65h0c-.36,0-.65.29-.65.65ZM123.29,98.06v5.84c0,.36.29.65.65.65h0c.36,0,.65-.29.65-.65h0v-5.19c0-.36-.29-.65-.65-.65h-.65ZM121.99,98.06v1.3h1.3v-1.3h-1.3ZM114.2,98.71v1.3c0,.36.29.65.65.65h0c.36,0,.65-.29.65-.65h0v-1.3c0-.36-.29-.65-.65-.65h0c-.36,0-.65.29-.65.65ZM106.41,98.06v1.3h.65c.36,0,.65-.29.65-.65h0c0-.36-.29-.65-.65-.65h-.65ZM103.81,98.06v3.25c0,.36.29.65.65.65h0c.36,0,.65-.29.65-.65h0v-3.25h-1.3ZM103.16,98.06c-.36,0-.65.29-.65.65h0c0,.36.29.65.65.65h.65v-1.3h-.65ZM133.02,99.36c-.36,0-.65.29-.65.65h0v1.95h1.3v-2.6h-.65ZM128.48,99.36v2.6h1.3v-2.6h-1.3ZM127.18,99.36v7.14c0,.36.29.65.65.65h.65v-7.79h-1.3ZM126.53,99.36c-.36,0-.65.29-.65.65h0c0,.36.29.65.65.65h.65v-1.3h-.65ZM111.6,99.36v1.3h.65c.36,0,.65-.29.65-.65h0c0-.36-.29-.65-.65-.65h-.65ZM110.95,99.36c-.36,0-.65.29-.65.65h0c0,.36.29.65.65.65h.65v-1.3h-.65ZM99.27,99.36c-.36,0-.65.29-.65.65h0c0,.36.29.65.65.65h.65v-1.3h-.65ZM131.08,100.66v1.3h1.3v-1.3h-1.3ZM121.99,100.66v1.3h1.3v-1.3h-1.3ZM115.5,101.3c0,.36.29.65.65.65h0c.36,0,.65-.29.65-.65h0c0-.36-.29-.65-.65-.65h0c-.36,0-.65.29-.65.65ZM109.01,101.3c0,.36.29.65.65.65h0c.36,0,.65-.29.65-.65h0c0-.36-.29-.65-.65-.65h0c-.36,0-.65.29-.65.65ZM106.41,101.3c0,.36.29.65.65.65h0c.36,0,.65-.29.65-.65h0c0-.36-.29-.65-.65-.65h0c-.36,0-.65.29-.65.65ZM101.22,100.66v1.3h.65c.36,0,.65-.29.65-.65h0c0-.36-.29-.65-.65-.65h-.65ZM140.17,102.6v1.95h.65c.36,0,.65-.29.65-.65h0v-1.3c0-.36-.29-.65-.65-.65h0c-.36,0-.65.29-.65.65ZM119.39,101.95v2.6h1.3v-2.6h-1.3ZM118.74,101.95c-.36,0-.65.29-.65.65h0v3.25h.65c.36,0,.65-.29.65-.65h0v-3.25h-.65ZM114.2,101.95v1.3h.65c.36,0,.65-.29.65-.65h0c0-.36-.29-.65-.65-.65h-.65ZM112.9,101.95v1.3h1.3v-1.3h-1.3ZM112.25,101.95c-.36,0-.65.29-.65.65h0c0,.36.29.65.65.65h.65v-1.3h-.65ZM138.87,103.25v3.25c0,.36.29.65.65.65h.65v-3.89h-1.3ZM138.22,103.25c-.36,0-.65.29-.65.65h0v1.95h1.3v-2.6h-.65ZM132.38,103.9c0,.36.29.65.65.65h0c.36,0,.65-.29.65-.65h0c0-.36-.29-.65-.65-.65h0c-.36,0-.65.29-.65.65ZM128.48,103.25v1.3h1.3v-1.3h-1.3ZM126.53,103.25c-.36,0-.65.29-.65.65h0c0,.36.29.65.65.65h.65v-1.3h-.65ZM117.44,103.25c-.36,0-.65.29-.65.65h0v1.95h1.3v-2.6h-.65ZM110.3,103.9v1.3c0,.36.29.65.65.65h.65v-1.95c0-.36-.29-.65-.65-.65h0c-.36,0-.65.29-.65.65ZM136.27,104.55v1.3h1.3v-1.3h-1.3ZM124.59,105.2c0,.36.29.65.65.65h0c.36,0,.65-.29.65-.65h0c0-.36-.29-.65-.65-.65h0c-.36,0-.65.29-.65.65ZM121.99,105.2v1.95h1.3v-1.95c0-.36-.29-.65-.65-.65h0c-.36,0-.65.29-.65.65ZM115.5,104.55v1.3h1.3v-1.3h-1.3ZM114.2,104.55v1.3h1.3v-1.3h-1.3ZM112.9,104.55v1.3h1.3v-1.3h-1.3ZM111.6,104.55v3.9h1.3v-3.9h-1.3ZM140.17,105.85v1.3h.65c.36,0,.65-.29.65-.65h0c0-.36-.29-.65-.65-.65h-.65ZM133.67,105.85v5.84c0,.36.29.65.65.65h.65v-6.49h-1.3ZM132.38,105.85v1.3h1.3v-1.3h-1.3ZM131.08,105.85v1.95c0,.36.29.65.65.65h0c.36,0,.65-.29.65-.65h0v-1.95h-1.3ZM128.48,105.85v1.95c0,.36.29.65.65.65h0c.36,0,.65-.29.65-.65h0v-1.95h-1.3ZM123.29,105.85v1.3h.65c.36,0,.65-.29.65-.65h0c0-.36-.29-.65-.65-.65h-.65ZM120.69,105.85v2.6h.65c.36,0,.65-.29.65-.65h0v-1.95h-1.3ZM120.04,105.85c-.36,0-.65.29-.65.65h0v3.25h.65c.36,0,.65-.29.65-.65h0v-3.25h-.65ZM137.57,107.8v1.95h.65c.36,0,.65-.29.65-.65h0v-1.3c0-.36-.29-.65-.65-.65h0c-.36,0-.65.29-.65.65ZM125.88,107.15v1.3h.65c.36,0,.65-.29.65-.65h0c0-.36-.29-.65-.65-.65h-.65ZM125.23,107.15c-.36,0-.65.29-.65.65h0v1.3c0,.36.29.65.65.65h0c.36,0,.65-.29.65-.65h0v-1.95h-.65ZM118.09,107.15v2.6h1.3v-2.6h-1.3ZM117.44,107.15c-.36,0-.65.29-.65.65h0v1.95h1.3v-2.6h-.65ZM114.2,107.15v1.3h.65c.36,0,.65-.29.65-.65h0c0-.36-.29-.65-.65-.65h-.65ZM112.9,107.15v1.3h1.3v-1.3h-1.3ZM110.95,107.15c-.36,0-.65.29-.65.65h0v1.95h.65c.36,0,.65-.29.65-.65h0v-1.95h-.65ZM140.17,109.1c0,.36.29.65.65.65h0c.36,0,.65-.29.65-.65h0c0-.36-.29-.65-.65-.65h0c-.36,0-.65.29-.65.65ZM136.27,108.45v3.89h.65c.36,0,.65-.29.65-.65h0v-3.25h-1.3ZM134.97,108.45v3.89h1.3v-3.89h-1.3ZM121.99,109.1v1.95h1.3v-1.95c0-.36-.29-.65-.65-.65h0c-.36,0-.65.29-.65.65ZM116.15,108.45c-.36,0-.65.29-.65.65h0v1.95h.65c.36,0,.65-.29.65-.65h0v-1.95h-.65ZM109.65,108.45c-.36,0-.65.29-.65.65h0v1.3c0,.36.29.65.65.65h0c.36,0,.65-.29.65-.65h0v-1.95h-.65ZM129.78,110.39v1.3c0,.36.29.65.65.65h0c.36,0,.65-.29.65-.65h0v-1.3c0-.36-.29-.65-.65-.65h0c-.36,0-.65.29-.65.65ZM127.18,110.39v1.95h.65c.36,0,.65-.29.65-.65h0v-1.3c0-.36-.29-.65-.65-.65h0c-.36,0-.65.29-.65.65ZM123.29,109.74v1.95c0,.36.29.65.65.65h0c.36,0,.65-.29.65-.65h0v-1.3c0-.36-.29-.65-.65-.65h-.65ZM121.34,109.74c-.36,0-.65.29-.65.65h0v1.3c0,.36.29.65.65.65h0c.36,0,.65-.29.65-.65h0v-1.95h-.65ZM114.2,109.74v2.6h.65c.36,0,.65-.29.65-.65h0v-1.95h-1.3ZM112.9,109.74v2.6h1.3v-2.6h-1.3ZM112.25,109.74c-.36,0-.65.29-.65.65h0v1.95h1.3v-2.6h-.65ZM138.87,111.69c0,.36.29.65.65.65h0c.36,0,.65-.29.65-.65h0c0-.36-.29-.65-.65-.65h0c-.36,0-.65.29-.65.65ZM126.53,111.04c-.36,0-.65.29-.65.65h0c0,.36.29.65.65.65h.65v-1.3h-.65ZM110.95,111.04c-.36,0-.65.29-.65.65h0c0,.36.29.65.65.65h.65v-1.3h-.65Z" fill="#231f20"/>
    </clipPath>
    <clipPath id="clippath-2">
      <path d="M98.62,72.74v2.6c0,1.79,1.45,3.25,3.25,3.25h2.6c1.79,0,3.25-1.45,3.25-3.25v-2.6c0-1.79-1.45-3.25-3.25-3.25h-2.6c-1.79,0-3.25,1.45-3.25,3.25M101.86,70.79h2.6c1.08,0,1.95.87,1.95,1.95v2.6c0,1.08-.87,1.95-1.95,1.95h-2.6c-1.08,0-1.95-.87-1.95-1.95v-2.6c0-1.08.87-1.95,1.95-1.95Z" fill="#231f20"/>
    </clipPath>
    <clipPath id="clippath-3">
      <circle cx="103.16" cy="74.04" r="1.95" fill="#231f20"/>
    </clipPath>
    <clipPath id="clippath-4">
      <path d="M138.22,69.5h-2.6c-1.79,0-3.25,1.45-3.25,3.25v2.6c0,1.79,1.45,3.25,3.25,3.25h2.6c1.79,0,3.25-1.45,3.25-3.25v-2.6c0-1.79-1.45-3.25-3.25-3.25M140.17,72.74v2.6c0,1.08-.87,1.95-1.95,1.95h-2.6c-1.08,0-1.95-.87-1.95-1.95v-2.6c0-1.08.87-1.95,1.95-1.95h2.6c1.08,0,1.95.87,1.95,1.95Z" fill="#231f20"/>
    </clipPath>
    <clipPath id="clippath-5">
      <circle cx="136.92" cy="74.04" r="1.95" fill="#231f20"/>
    </clipPath>
    <clipPath id="clippath-6">
      <path d="M101.86,112.34h2.6c1.79,0,3.25-1.45,3.25-3.25v-2.6c0-1.79-1.45-3.25-3.25-3.25h-2.6c-1.79,0-3.25,1.45-3.25,3.25v2.6c0,1.79,1.45,3.25,3.25,3.25M99.92,109.09v-2.6c0-1.08.87-1.95,1.95-1.95h2.6c1.08,0,1.95.87,1.95,1.95v2.6c0,1.08-.87,1.95-1.95,1.95h-2.6c-1.08,0-1.95-.87-1.95-1.95Z" fill="#231f20"/>
    </clipPath>
    <clipPath id="clippath-7">
      <circle cx="103.16" cy="107.8" r="1.95" fill="#231f20"/>
    </clipPath>
  </defs>
  <path id="path1232-36-5-9-0-7-7-0-7-3-2-1-0-1-4-7" d="M259.75,214.22h13.33c8.26,0,16.67-3.33,26.67-10,10-6.67,18.75-10.01,26.67-10h13.33" fill="none" stroke="#eddd86" stroke-miterlimit="15.12" stroke-width="3"/>
  <path id="path1232-36-5-9-0-7-7-0-7-3-2-1-0-1-4-7-2" data-name="path1232-36-5-9-0-7-7-0-7-3-2-1-0-1-4-7" d="M259.75,171.36h13.33c8.26,0,16.67,3.33,26.67,10,10,6.67,18.75,10.01,26.67,10h13.33" fill="none" stroke="#6a9589" stroke-miterlimit="15.12" stroke-width="3"/>
  <path id="path2500-5-22-5-4-4-0" d="M256.04,43.08h67.71" fill="none" stroke="#c44043" stroke-miterlimit="15.12" stroke-width="3"/>
  <path id="path1232-36-5-9-0" d="M384.79,45.7v3.54c0,3.54-3.13,5.59-6.25,7.25-3.13,1.66-4.69,2.49-10.94,2.49h-31.26" fill="none" stroke="#598cc9" stroke-miterlimit="15.12" stroke-width="3"/>
  <path id="path2500-5-22-5-4-4-0-2" data-name="path2500-5-22-5-4-4-0" d="M338.78,192.69h45.85" fill="none" stroke="#c44043" stroke-miterlimit="15.12" stroke-width="3"/>
  <path id="path2500-5-22-5-4-4-0-3" data-name="path2500-5-22-5-4-4-0" d="M259.75,192.22v23.19" fill="none" stroke="#eddd86" stroke-miterlimit="15.12" stroke-width="3"/>
  <path id="path2500-5-22-2-6" d="M384.63,62.99v-18.56" fill="none" stroke="#35436f" stroke-miterlimit="15.12" stroke-width="3"/>
  <path id="path2500-5-22-5-4-4-0-4" data-name="path2500-5-22-5-4-4-0" d="M330.43,44.43h52.9" fill="none" stroke="#c44043" stroke-miterlimit="15.12" stroke-width="3"/>
  <path id="path2500-5-22-5-4-4-0-5" data-name="path2500-5-22-5-4-4-0" d="M72.52,43.08h104.78" fill="none" stroke="#c44043" stroke-miterlimit="15.12" stroke-width="3"/>
  <path id="path2500-5-22-5-4-4-0-6" data-name="path2500-5-22-5-4-4-0" d="M153.51,43.08h24.17" fill="none" stroke="#809bd0" stroke-miterlimit="15.12" stroke-width="3"/>
  <path id="path2500-5-22-5-4-4-0-7" data-name="path2500-5-22-5-4-4-0" d="M68.48,214.22H27.11" fill="none" stroke="#eddd86" stroke-miterlimit="15.12" stroke-width="3"/>
  <path id="path2500-5-22-5-4-4-0-8" data-name="path2500-5-22-5-4-4-0" d="M259.62,169.59v22.63" fill="none" stroke="#6a9589" stroke-miterlimit="15.12" stroke-width="3"/>
  <path id="path2500-5-22-5-4-4-0-9" data-name="path2500-5-22-5-4-4-0" d="M203.14,214.22h-54.47" fill="none" stroke="#eddd86" stroke-miterlimit="15.12" stroke-width="3"/>
  <path id="path2500-5-22-5-4-4-0-10" data-name="path2500-5-22-5-4-4-0" d="M259.75,211.39v20.57" fill="none" stroke="#eddd86" stroke-miterlimit="15.12" stroke-width="3"/>
  <path id="path2500-5-22-5-4-4-0-11" data-name="path2500-5-22-5-4-4-0" d="M260.22,214.22h-57.09" fill="none" stroke="#eddd86" stroke-miterlimit="15.12" stroke-width="3"/>
  <path id="path1232-36-5-9-0-7-7-0-7-3-2-1-0-1-4-7-9" d="M383.3,62.31v7.19c0,4.27-1.8,8.98-5.39,14.37-3.59,5.39-5.39,9.92-5.39,14.37v7.19" fill="none" stroke="#c8c093" stroke-miterlimit="15.12" stroke-width="3"/>
  <path id="path1232-36-5-9-0-7-7-0-7-3-2-1-0-1-4-7-9-2" data-name="path1232-36-5-9-0-7-7-0-7-3-2-1-0-1-4-7-9" d="M396.74,105.42v-7.19c0-4.45-1.8-8.98-5.39-14.37-3.59-5.39-5.39-10.1-5.39-14.37v-7.19" fill="none" stroke="#d17e99" stroke-miterlimit="15.12" stroke-width="3"/>
  <path id="path1232-36-5-9-0-7-7-0-7-3-2-1-0-1-4-7-9-3" data-name="path1232-36-5-9-0-7-7-0-7-3-2-1-0-1-4-7-9" d="M212.92,32.26h7.19c4.27,0,8.98,1.8,14.37,5.39,5.39,3.59,9.92,5.39,14.37,5.39h7.19" fill="none" stroke="#c44043" stroke-miterlimit="15.12" stroke-width="3"/>
  <path id="path1232-36-5-9-0-7-7-0-7-3-2-1-0-1-4-7-9-4" data-name="path1232-36-5-9-0-7-7-0-7-3-2-1-0-1-4-7-9" d="M175.1,43.08h7.19c4.45,0,8.98-1.8,14.37-5.39,5.39-3.59,10.1-5.39,14.37-5.39h7.19" fill="none" stroke="#809bd0" stroke-miterlimit="15.12" stroke-width="3"/>
  <path id="path1232-36-5-9-0-7-7-0-7-3-2-1-0-1-4-7-9-5" data-name="path1232-36-5-9-0-7-7-0-7-3-2-1-0-1-4-7-9" d="M385.96,190.05v-7.19c0-4.27,1.8-8.98,5.39-14.37,3.59-5.39,5.39-9.92,5.39-14.37v-7.19" fill="none" stroke="#d17e99" stroke-miterlimit="15.12" stroke-width="3"/>
  <path id="path1232-36-5-9-0-7-7-0-7-3-2-1-0-1-4-7-9-6" data-name="path1232-36-5-9-0-7-7-0-7-3-2-1-0-1-4-7-9" d="M372.52,146.94v7.19c0,4.45,1.8,8.98,5.39,14.37,3.59,5.39,5.39,10.1,5.39,14.37v7.19" fill="none" stroke="#c8c093" stroke-miterlimit="15.12" stroke-width="3"/>
  <path id="path2500-5-22-5-4-4-0-12" data-name="path2500-5-22-5-4-4-0" d="M192.11,32.3h26.28" fill="none" stroke="#c44043" stroke-miterlimit="15.12" stroke-width="3"/>
  <path id="path2500-5-22-5-4-3" d="M72.52,45.75h254.4" fill="none" stroke="#98bb6c" stroke-miterlimit="15.12" stroke-width="3"/>
  <path id="path1232-36-5-9-0-7-7-0-7-3-2-1-0-1-4-7-9-7" data-name="path1232-36-5-9-0-7-7-0-7-3-2-1-0-1-4-7-9" d="M153.54,43.08h7.19c4.45,0,8.98-1.8,14.37-5.39,5.39-3.59,10.1-5.39,14.37-5.39h7.19" fill="none" stroke="#f89f68" stroke-miterlimit="15.12" stroke-width="3"/>
  <g>
    <path id="path6276-4-4-5" d="M39.64,25.35v27.31h20.49v-20.49l-6.83-6.83h-13.66Z" fill="#fff"/>
    <path id="path5862-1-4" d="M61.83,30.48c0-.34-.34-.68-.68-1.02l-5.8-5.12c-.34-.34-.68-.68-1.07-.68h-6.1s-8.54,0-8.54,0c-1.02,0-1.71.68-1.71,1.71v27.31c0,1.02.68,1.71,1.71,1.71h20.49c1.02,0,1.71-.68,1.71-1.71v-22.19ZM60.12,52.67h-20.49v-27.31h13.66v6.15c0,.41.26.68.68.68h6.15v20.49Z" fill="#010101"/>
    <path id="rect18347-2-7" d="M37.99,35.6h23.77c.98,0,1.77.64,1.77,1.44v3.68s0,3.68,0,3.68c0,.8-.79,1.44-1.77,1.44h-23.77c-.98,0-1.77-.64-1.77-1.44v-7.37c0-.8.79-1.44,1.77-1.44h0Z" fill="#010101" fill-rule="evenodd"/>
    <text transform="translate(42.11 42.5)" fill="#fff" font-family="MavenPro-Regular, &apos;Maven Pro&apos;" font-size="6.83" font-variation-settings="&apos;wght&apos; 400" isolation="isolate"><tspan x="0" y="0">fastq</tspan></text>
    <path id="path6276-4-4-6-7" d="M36.22,28.77v27.31h20.49v-20.49l-6.83-6.83h-13.66Z" fill="#fff"/>
    <path id="path5862-1-1-0" d="M58.42,33.89c0-.34-.34-.68-.68-1.02l-5.8-5.12c-.34-.34-.68-.68-1.07-.68h-14.64c-1.02,0-1.71.68-1.71,1.71v27.31c0,1.02.68,1.71,1.71,1.71h11.95s8.54,0,8.54,0c1.02,0,1.71-.68,1.71-1.71v-22.19ZM56.71,56.08h-20.49v-27.31h13.66v6.15c0,.41.26.68.68.68h6.15v20.49Z" fill="#010101"/>
    <path id="rect18347-2-5-0" d="M34.58,39.01h23.77c.98,0,1.77.64,1.77,1.44v7.37c0,.8-.79,1.44-1.77,1.44h-23.77c-.98,0-1.77-.64-1.77-1.44v-7.1s0-.27,0-.27c0-.8.79-1.44,1.77-1.44h0Z" fill="#010101" fill-rule="evenodd"/>
    <text transform="translate(39.64 46.46)" fill="#fff" font-family="MavenPro-Regular, &apos;Maven Pro&apos;" font-size="6.83" font-variation-settings="&apos;wght&apos; 400" isolation="isolate"><tspan x="0" y="0">bam</tspan></text>
  </g>
  <circle id="path3447-6-2-4" cx="151.33" cy="44.43" r="3.34" fill="#fff" stroke="#010101" stroke-linecap="round" stroke-miterlimit="15.12" stroke-width="3"/>
  <path id="path2500-5-22-2-5-3" d="M65.78,36.34v16.17h5.39l8.08-8.08-8.08-8.08h0s-5.39,0-5.39,0Z" fill="#010101"/>
  <text transform="translate(242.25 13.34)" fill="#231f20" font-size="8"><tspan font-family="MavenPro-Bold, &apos;Maven Pro&apos;" font-variation-settings="&apos;wght&apos; 700" font-weight="700"><tspan x="0" y="0">P</tspan><tspan x="5.31" y="0" letter-spacing="-.02em">r</tspan><tspan x="8.6" y="0">edict </tspan></tspan><tspan font-family="MavenPro-Bold, &apos;Maven Pro&apos;" font-variation-settings="&apos;wght&apos; 700" font-weight="700"><tspan x="-19.58" y="9.6">Nucleosome/MSP</tspan></tspan><tspan font-family="MavenPro-Regular, &apos;Maven Pro&apos;" font-variation-settings="&apos;wght&apos; 400"><tspan x="-4.06" y="19.2">Fibertools</tspan></tspan></text>
  <text transform="translate(121.52 6.67)" fill="#231f20" font-size="8"><tspan font-family="MavenPro-Bold, &apos;Maven Pro&apos;" font-variation-settings="&apos;wght&apos; 700" font-weight="700"><tspan x="0" y="0">BAM QC</tspan></tspan><tspan font-family="MavenPro-Regular, &apos;Maven Pro&apos;" font-variation-settings="&apos;wght&apos; 400"><tspan x=".15" y="9.6">Cramino</tspan></tspan><tspan font-family="MavenPro-Regular, &apos;Maven Pro&apos;" font-variation-settings="&apos;wght&apos; 400"><tspan x="-2.33" y="19.2">Mosdepth</tspan></tspan><tspan font-family="MavenPro-Regular, &apos;Maven Pro&apos;" font-variation-settings="&apos;wght&apos; 400"><tspan x="-1.28" y="28.8">SAMtools</tspan></tspan></text>
  <g>
    <path d="M318.13,14.77c-.85,0-1.51-.23-1.96-.68-.45-.45-.68-1.15-.68-2.09s.22-1.61.65-2.08,1.09-.71,1.98-.71c.28,0,.57.03.86.1s.57.17.84.29v1.13c-.28-.18-.54-.31-.8-.39s-.5-.12-.72-.12c-.32,0-.58.06-.8.17-.22.11-.38.3-.5.56-.12.26-.17.61-.17,1.06s.06.79.17,1.05c.11.26.29.44.51.55s.5.16.84.16c.2,0,.42-.04.67-.11s.51-.2.79-.38v1.13c-.15.07-.32.14-.51.2-.19.06-.39.1-.59.13-.21.03-.4.05-.6.05Z" fill="#231f20"/>
    <path d="M322.59,14.78c-.68,0-1.2-.18-1.54-.55-.34-.37-.52-.9-.52-1.61,0-.76.17-1.31.52-1.64.35-.33.86-.5,1.53-.5.45,0,.83.08,1.14.23s.54.39.7.7c.16.31.24.72.24,1.22,0,.71-.18,1.25-.54,1.61-.36.37-.87.55-1.54.55ZM322.59,13.83c.2,0,.36-.05.49-.14.13-.09.23-.23.3-.41.07-.18.1-.4.1-.66,0-.3-.03-.53-.1-.71-.07-.17-.17-.3-.3-.38-.13-.08-.3-.12-.49-.12-.2,0-.37.04-.5.12s-.22.21-.28.38c-.06.17-.09.41-.09.7,0,.41.07.71.21.91.14.2.36.3.66.3Z" fill="#231f20"/>
    <path d="M325.48,10.96c.1-.05.23-.11.4-.16.17-.06.35-.1.54-.15.2-.04.4-.08.6-.1.2-.03.38-.04.56-.04.36,0,.67.05.93.14.26.09.45.24.59.45.14.21.2.49.2.85v2.72h-1.19v-2.48c0-.1-.01-.19-.04-.28-.03-.09-.07-.16-.13-.22-.06-.06-.14-.11-.24-.14s-.22-.05-.37-.05c-.12,0-.25.01-.37.04-.12.03-.22.06-.28.09v3.04h-1.19v-3.7Z" fill="#231f20"/>
    <path d="M332.25,14.77c-.29,0-.56-.04-.82-.13-.26-.09-.48-.21-.68-.38-.2-.17-.35-.39-.46-.65-.11-.26-.17-.56-.17-.91,0-.37.05-.69.16-.96.11-.27.25-.5.44-.68.19-.18.41-.32.67-.41s.54-.14.85-.14c.22,0,.44.02.68.07.23.05.44.11.61.19v1.02c-.19-.09-.37-.16-.55-.21-.18-.06-.36-.08-.55-.08-.34,0-.61.08-.81.25-.21.17-.31.44-.31.82,0,.4.09.7.27.9.18.2.48.3.9.3.2,0,.39-.03.57-.1.18-.07.34-.14.48-.22v1.02c-.19.1-.38.17-.58.22-.2.05-.44.08-.7.08Z" fill="#231f20"/>
    <path d="M335.93,14.78c-.25,0-.48-.02-.69-.07-.22-.04-.41-.12-.57-.22-.16-.1-.29-.25-.38-.42-.09-.18-.14-.4-.14-.67,0-.25.05-.47.16-.66.1-.19.26-.33.48-.43.21-.1.48-.15.81-.15.18,0,.36.02.53.06.17.04.32.09.46.15.14.06.24.13.32.21l.05.58c-.11-.06-.23-.11-.38-.15-.15-.04-.31-.06-.48-.06-.26,0-.45.04-.57.12s-.18.2-.18.36c0,.1.03.19.09.27.06.08.14.14.24.18.1.04.2.06.31.06.27,0,.46-.02.57-.06.11-.04.16-.11.16-.22v-1.49c0-.25-.08-.42-.24-.53s-.38-.16-.67-.16c-.24,0-.47.04-.71.12-.24.08-.43.18-.58.3v-1.06c.14-.09.35-.17.64-.24.29-.07.62-.11.98-.11.13,0,.27.01.42.03.15.02.31.06.46.12.16.06.3.14.43.24.13.11.24.24.32.41.08.17.12.37.12.62v1.91c0,.23-.09.41-.24.56-.15.14-.38.24-.67.31s-.64.1-1.05.1Z" fill="#231f20"/>
    <path d="M340.6,14.82c-.47,0-.82-.11-1.05-.33-.23-.22-.34-.53-.34-.94v-2.02h-.59v-.91h.59v-1.11h1.25v1.11h.89v.91h-.89v1.87c0,.14.03.24.09.31.06.07.16.1.3.1.08,0,.17-.02.26-.05.1-.03.18-.07.24-.12v1.02c-.11.06-.23.1-.36.12s-.26.04-.38.04Z" fill="#231f20"/>
    <path d="M310.26,24.26v-5.34h2.6c.6,0,1.07.14,1.42.42.34.28.51.71.51,1.28,0,.23-.05.47-.14.69-.1.23-.24.42-.42.58-.19.16-.42.27-.7.32l-.08-.44,1.62,2.49h-1.65l-1.34-2.33.58.49h-1.1v1.84h-1.3ZM311.55,21.47h1.09c.23,0,.41-.06.54-.18.13-.12.2-.33.2-.61,0-.25-.06-.43-.18-.56s-.29-.19-.51-.19h-1.14v1.54Z" fill="#231f20"/>
    <path d="M317.72,24.38c-.41,0-.76-.08-1.08-.25-.31-.17-.55-.41-.73-.72-.17-.31-.26-.68-.26-1.12,0-.7.17-1.25.52-1.64.35-.39.85-.58,1.5-.58.45,0,.81.1,1.08.29.28.19.48.47.6.84.13.37.19.82.18,1.34h-3.08l-.13-.76h2.22l-.18.38c0-.43-.07-.74-.18-.91-.12-.18-.31-.26-.58-.26-.15,0-.28.04-.4.11-.12.07-.21.2-.28.37s-.1.41-.1.72c0,.38.09.68.28.89.18.21.48.31.88.31.15,0,.3-.02.44-.05s.28-.08.41-.12c.13-.05.24-.09.33-.13v1.02c-.19.08-.41.15-.64.2s-.51.08-.83.08Z" fill="#231f20"/>
    <path d="M322.57,24.38c-.08,0-.2,0-.35-.02-.15-.02-.31-.05-.48-.11-.17-.06-.31-.14-.42-.26l.24-.38v2.1h-1.17v-4.64c0-.18.05-.33.15-.45.1-.12.24-.22.42-.3s.38-.14.61-.18c.23-.04.48-.06.75-.06.41,0,.76.07,1.07.2.31.14.55.36.72.68.17.32.26.76.26,1.31,0,.42-.07.78-.22,1.1-.14.32-.35.56-.61.74-.26.18-.58.26-.96.26ZM322.22,23.42c.21,0,.39-.04.53-.11s.24-.2.32-.37c.07-.17.11-.41.11-.7,0-.25-.03-.45-.08-.62-.05-.17-.15-.3-.28-.4-.13-.09-.31-.14-.55-.14-.26,0-.44.03-.55.08s-.16.12-.16.2v1.9c.1.06.21.1.34.13.12.03.23.04.33.04Z" fill="#231f20"/>
    <path d="M326.38,24.26h-1.18v-5.58h1.18v5.58Z" fill="#231f20"/>
    <path d="M327.43,19.66v-.92h1.23v.92h-1.23ZM327.46,24.26v-3.99h1.19v3.99s-1.19,0-1.19,0Z" fill="#231f20"/>
    <path d="M331.62,24.37c-.29,0-.56-.04-.82-.13-.26-.09-.48-.21-.68-.38-.2-.17-.35-.39-.46-.65-.11-.26-.17-.56-.17-.91,0-.37.05-.69.16-.96.11-.27.25-.5.44-.68.19-.18.41-.32.67-.41.26-.09.54-.14.85-.14.22,0,.44.02.68.07s.44.11.61.19v1.02c-.19-.09-.37-.16-.55-.21-.18-.06-.36-.08-.55-.08-.34,0-.61.08-.81.25s-.31.44-.31.82c0,.4.09.7.27.9.18.2.48.3.9.3.2,0,.39-.03.57-.1.18-.07.34-.14.48-.22v1.02c-.19.1-.38.17-.58.22-.2.05-.44.08-.7.08Z" fill="#231f20"/>
    <path d="M335.3,24.38c-.25,0-.48-.02-.69-.07-.22-.04-.41-.12-.57-.22s-.29-.25-.38-.42c-.09-.18-.14-.4-.14-.67,0-.25.05-.47.16-.66.1-.19.26-.33.48-.43.21-.1.48-.15.81-.15.18,0,.36.02.53.06.17.04.32.09.46.15s.24.13.32.21l.05.58c-.11-.06-.23-.11-.38-.15-.15-.04-.31-.06-.48-.06-.26,0-.45.04-.57.12-.12.08-.18.2-.18.36,0,.1.03.19.09.27.06.08.14.14.24.18.1.04.2.06.31.06.27,0,.46-.02.57-.06.11-.04.16-.11.16-.22v-1.49c0-.25-.08-.42-.24-.53s-.38-.16-.67-.16c-.23,0-.47.04-.71.12-.24.08-.43.18-.58.3v-1.06c.14-.09.35-.17.64-.24.29-.07.62-.11.98-.11.13,0,.27.01.42.03.15.02.31.06.46.12.15.06.3.14.43.24.13.11.24.24.32.41.08.17.12.37.12.62v1.91c0,.23-.08.41-.24.56-.16.14-.38.24-.67.31-.29.06-.64.1-1.05.1Z" fill="#231f20"/>
    <path d="M339.97,24.42c-.47,0-.82-.11-1.05-.33s-.34-.53-.34-.94v-2.02h-.59v-.91h.59v-1.11h1.25v1.11h.89v.91h-.89v1.87c0,.14.03.24.09.31.06.07.16.1.3.1.08,0,.17-.02.26-.05.1-.03.18-.07.24-.12v1.02c-.11.06-.23.1-.36.12s-.26.04-.38.04Z" fill="#231f20"/>
    <path d="M343.45,24.38c-.41,0-.76-.08-1.08-.25-.31-.17-.55-.41-.73-.72-.17-.31-.26-.68-.26-1.12,0-.7.17-1.25.52-1.64s.85-.58,1.5-.58c.45,0,.81.1,1.08.29s.48.47.6.84c.13.37.19.82.18,1.34h-3.08l-.13-.76h2.22l-.18.38c0-.43-.07-.74-.18-.91-.12-.18-.31-.26-.58-.26-.15,0-.28.04-.4.11s-.21.2-.28.37c-.07.17-.1.41-.1.72,0,.38.09.68.28.89.18.21.48.31.88.31.15,0,.3-.02.44-.05.15-.03.28-.08.41-.12.13-.05.24-.09.33-.13v1.02c-.19.08-.41.15-.64.2s-.51.08-.83.08Z" fill="#231f20"/>
    <path d="M347.31,24.38c-.29,0-.53-.03-.74-.09-.21-.06-.4-.13-.58-.2v-1.05c.11.07.24.15.38.23.14.08.29.14.46.19.17.05.34.07.53.07s.33-.03.4-.1.12-.15.12-.24c0-.09-.04-.16-.12-.22-.08-.06-.18-.1-.31-.14-.13-.04-.26-.07-.41-.1-.13-.03-.26-.07-.38-.12-.13-.06-.24-.13-.34-.23s-.18-.21-.24-.36c-.06-.14-.09-.31-.09-.52,0-.26.05-.48.15-.65.1-.17.23-.31.4-.42.17-.11.34-.18.54-.23.19-.05.38-.07.56-.06.33.01.59.05.79.11.19.06.37.14.53.24v.94c-.18-.1-.36-.2-.54-.28-.18-.09-.38-.13-.61-.13-.21,0-.36.03-.45.1s-.14.15-.14.26.03.18.09.24.14.11.24.14c.1.04.21.07.34.1.13.03.27.07.41.12.14.05.27.11.4.19.13.08.23.2.3.34.08.15.12.34.12.58,0,.33-.09.59-.26.78s-.39.33-.66.42-.56.12-.88.12Z" fill="#231f20"/>
    <path d="M315.07,33.94c-.27,0-.49-.02-.68-.06s-.35-.09-.5-.16c-.15-.07-.31-.15-.49-.24v-.62c.17.14.4.27.69.38.29.11.62.17,1.01.17.41,0,.7-.09.88-.26.18-.17.28-.39.28-.66,0-.22-.06-.4-.18-.54-.12-.14-.28-.25-.47-.34-.19-.09-.39-.17-.61-.25-.18-.06-.36-.13-.54-.2-.18-.07-.34-.16-.48-.27-.14-.11-.26-.25-.34-.42-.09-.17-.13-.39-.13-.65,0-.14.03-.3.08-.46.06-.16.15-.31.27-.45s.29-.25.5-.34c.21-.08.47-.13.77-.13.21,0,.38.01.53.04.15.03.29.07.42.13.13.06.28.12.45.2v.59c-.14-.08-.27-.15-.4-.22-.13-.07-.26-.12-.42-.16-.15-.04-.34-.06-.56-.06-.26,0-.47.04-.63.11s-.27.17-.34.3-.11.25-.11.39c0,.22.05.39.15.52s.24.23.42.32.39.16.62.24c.19.06.37.13.56.21.19.08.36.17.51.29.15.11.27.26.37.43.09.17.14.39.14.64,0,.24-.05.48-.16.71s-.29.42-.54.58-.61.23-1.06.23Z" fill="#231f20"/>
    <path d="M317.48,33.86l2.13-5.34h.58l2.12,5.34h-.62l-1.85-4.8.12-.02-1.86,4.82h-.62ZM318.41,32.2l.25-.55h2.62l.04.55h-2.9Z" fill="#231f20"/>
    <path d="M323.14,33.86v-5.34h.62l1.98,3.03-.39.09,2.09-3.12h.62v5.34h-.58v-4.76h.26l-2.2,3.09-2.03-3.02.21-.3v4.99h-.58Z" fill="#231f20"/>
    <path d="M330.64,33.93c-.28,0-.52-.09-.71-.26-.19-.17-.29-.43-.29-.77v-2.5h-.7v-.53h.7v-1.13h.58v1.13h1.03v.53h-1.03v2.31c0,.22.03.39.1.5s.21.17.42.17c.1,0,.19,0,.28-.03.09-.02.17-.04.22-.07v.54c-.07.03-.17.05-.28.07-.12.02-.22.03-.32.03Z" fill="#231f20"/>
    <path d="M333.92,33.98c-.62,0-1.09-.19-1.39-.56-.3-.37-.45-.89-.45-1.55s.16-1.21.48-1.56.77-.52,1.35-.52c.43,0,.78.09,1.06.26.27.17.47.42.6.73s.19.68.19,1.09c0,.66-.16,1.17-.48,1.54s-.77.56-1.36.56ZM333.92,33.45c.33,0,.58-.07.76-.21.18-.14.31-.33.39-.57s.12-.5.12-.8c0-.31-.04-.59-.12-.82-.08-.23-.21-.41-.4-.54-.18-.13-.43-.19-.75-.19s-.57.07-.75.21c-.18.14-.31.32-.39.56s-.12.49-.12.79c0,.47.09.85.28,1.14.19.29.51.44.98.44Z" fill="#231f20"/>
    <path d="M338.48,33.98c-.62,0-1.09-.19-1.39-.56-.3-.37-.45-.89-.45-1.55s.16-1.21.48-1.56.77-.52,1.35-.52c.43,0,.78.09,1.06.26.27.17.47.42.6.73s.19.68.19,1.09c0,.66-.16,1.17-.48,1.54s-.77.56-1.36.56ZM338.47,33.45c.33,0,.58-.07.76-.21.18-.14.31-.33.39-.57s.12-.5.12-.8c0-.31-.04-.59-.12-.82-.08-.23-.21-.41-.4-.54-.18-.13-.43-.19-.75-.19s-.57.07-.75.21c-.18.14-.31.32-.39.56s-.12.49-.12.79c0,.47.09.85.28,1.14.19.29.51.44.98.44Z" fill="#231f20"/>
    <path d="M341.96,33.86h-.58v-5.51h.58v5.51Z" fill="#231f20"/>
    <path d="M344.37,33.98c-.29,0-.53-.03-.72-.09-.2-.06-.4-.14-.6-.25v-.61c.17.09.31.17.44.23s.26.11.39.14c.13.03.29.04.46.04.27,0,.48-.06.65-.18s.25-.27.25-.46c0-.15-.04-.26-.12-.34-.08-.08-.19-.15-.32-.2s-.26-.11-.4-.17c-.16-.04-.31-.09-.47-.14-.16-.05-.3-.12-.43-.2-.13-.08-.24-.19-.32-.32-.08-.13-.12-.3-.12-.51s.04-.38.12-.52c.08-.14.19-.26.32-.36.13-.09.28-.16.45-.2.17-.04.33-.06.5-.06.24,0,.45.03.62.1.17.06.35.14.53.22v.58c-.2-.11-.38-.19-.54-.26-.16-.07-.35-.1-.57-.1s-.42.04-.59.13c-.17.09-.26.22-.26.4,0,.15.04.27.13.36s.2.16.35.21.3.1.46.15c.13.04.27.09.42.14.14.05.28.12.4.2.12.08.22.19.3.32s.12.3.12.51c0,.28-.07.52-.22.7-.14.18-.33.32-.55.4-.22.08-.45.13-.68.13Z" fill="#231f20"/>
  </g>
  <text transform="translate(169.52 13.13)" fill="#231f20" font-size="8"><tspan font-family="MavenPro-Bold, &apos;Maven Pro&apos;" font-variation-settings="&apos;wght&apos; 700" font-weight="700"><tspan x="0" y="0">P</tspan><tspan x="5.31" y="0" letter-spacing="-.02em">r</tspan><tspan x="8.6" y="0">edict 6ma</tspan></tspan><tspan font-family="MavenPro-Regular, &apos;Maven Pro&apos;" font-variation-settings="&apos;wght&apos; 400"><tspan x="5.5" y="9.6">Fibertools</tspan></tspan></text>
  <circle id="path3447-6-2-4-2" data-name="path3447-6-2-4" cx="327.08" cy="44.13" r="3.34" fill="#fff" stroke="#010101" stroke-linecap="round" stroke-miterlimit="15.12" stroke-width="3"/>
  <circle id="path3447-6-2-4-3" data-name="path3447-6-2-4" cx="192.86" cy="31.89" r="3.34" fill="#fff" stroke="#010101" stroke-linecap="round" stroke-miterlimit="15.12" stroke-width="3"/>
  <circle id="path3447-6-2-4-4" data-name="path3447-6-2-4" cx="219.14" cy="32.3" r="3.34" fill="#fff" stroke="#010101" stroke-linecap="round" stroke-miterlimit="15.12" stroke-width="3"/>
  <circle id="path3447-6-2-4-5" data-name="path3447-6-2-4" cx="384.79" cy="44.43" r="3.34" fill="#fff" stroke="#010101" stroke-linecap="round" stroke-miterlimit="15.12" stroke-width="3"/>
  <text transform="translate(364.95 21.46)" fill="#231f20" font-size="8"><tspan font-family="MavenPro-Bold, &apos;Maven Pro&apos;" font-variation-settings="&apos;wght&apos; 700" font-weight="700"><tspan x="0" y="0">Alignment</tspan></tspan><tspan font-family="MavenPro-Regular, &apos;Maven Pro&apos;" font-variation-settings="&apos;wght&apos; 400"><tspan x="2.15" y="9.6">Minimap2</tspan></tspan></text>
  <text transform="translate(373.04 211.1)" fill="#231f20" font-size="8"><tspan font-family="MavenPro-Bold, &apos;Maven Pro&apos;" font-variation-settings="&apos;wght&apos; 700" font-weight="700"><tspan x="0" y="0" letter-spacing="-.05em">V</tspan><tspan x="5.27" y="0">ariant Consensus</tspan></tspan><tspan font-family="MavenPro-Regular, &apos;Maven Pro&apos;" font-variation-settings="&apos;wght&apos; 400"><tspan x="19.54" y="9.6">BCFtools</tspan></tspan></text>
  <text transform="translate(77.01 39.01)" fill="#231f20" font-family="MavenPro-Medium, &apos;Maven Pro&apos;" font-size="6" font-variation-settings="&apos;wght&apos; 500" font-weight="500"><tspan x="0" y="0">Fiber-seq</tspan></text>
  <text transform="translate(77.38 54.38)" fill="#231f20" font-family="MavenPro-Medium, &apos;Maven Pro&apos;" font-size="6" font-variation-settings="&apos;wght&apos; 500" font-weight="500"><tspan x="0" y="0">Nati</tspan><tspan x="11.57" y="0" letter-spacing="-.03em">v</tspan><tspan x="14.9" y="0">e Long-</tspan><tspan x="36.38" y="0" letter-spacing="-.03em">r</tspan><tspan x="38.6" y="0">ead Sequencing</tspan></text>
  <text transform="translate(159.55 32.72)" fill="#231f20" font-family="MavenPro-Medium, &apos;Maven Pro&apos;" font-size="6" font-variation-settings="&apos;wght&apos; 500" font-weight="500"><tspan x="0" y="0">PacBio</tspan></text>
  <text transform="translate(201.84 41.61)" fill="#231f20" font-family="MavenPro-Medium, &apos;Maven Pro&apos;" font-size="6" font-variation-settings="&apos;wght&apos; 500" font-weight="500"><tspan x="0" y="0">ONT</tspan></text>
  <text transform="translate(395 84.43)" fill="#231f20" font-family="MavenPro-Medium, &apos;Maven Pro&apos;" font-size="6" font-variation-settings="&apos;wght&apos; 500" font-weight="500"><tspan x="0" y="0" letter-spacing="-.08em">T</tspan><tspan x="3.03" y="0">umor-Only</tspan></text>
  <text transform="translate(330.43 84.43)" fill="#231f20" font-family="MavenPro-Medium, &apos;Maven Pro&apos;" font-size="6" font-variation-settings="&apos;wght&apos; 500" font-weight="500"><tspan x="0" y="0" letter-spacing="-.08em">T</tspan><tspan x="3.03" y="0">umor-Normal</tspan></text>
  <path id="path2500-5-22-5-4-4-0-13" data-name="path2500-5-22-5-4-4-0" d="M260.22,171.52h-57.09" fill="none" stroke="#6a9589" stroke-miterlimit="15.12" stroke-width="3"/>
  <path id="path2500-5-22-5-4-4-0-14" data-name="path2500-5-22-5-4-4-0" d="M372.52,105.42v38.86" fill="none" stroke="#c8c093" stroke-miterlimit="15.12" stroke-width="3"/>
  <path id="path2500-5-22-5-4-4-0-15" data-name="path2500-5-22-5-4-4-0" d="M396.74,105.42v38.86" fill="none" stroke="#d17e99" stroke-miterlimit="15.12" stroke-width="3"/>
  <path id="path2500-5-22-5-4-4-0-16" data-name="path2500-5-22-5-4-4-0" d="M150.95,214.22h-82.47" fill="none" stroke="#eddd86" stroke-miterlimit="15.12" stroke-width="3"/>
  <circle id="path3447-6-2-4-6" data-name="path3447-6-2-4" cx="372.52" cy="106.02" r="3.34" fill="#fff" stroke="#010101" stroke-linecap="round" stroke-miterlimit="15.12" stroke-width="3"/>
  <circle id="path3447-6-2-4-7" data-name="path3447-6-2-4" cx="372.52" cy="144.29" r="3.34" fill="#fff" stroke="#010101" stroke-linecap="round" stroke-miterlimit="15.12" stroke-width="3"/>
  <text transform="translate(405.78 95.4)" fill="#231f20" font-size="8"><tspan font-family="MavenPro-Bold, &apos;Maven Pro&apos;" font-variation-settings="&apos;wght&apos; 700" font-weight="700"><tspan x="0" y="0">Germline </tspan><tspan x="37" y="0" letter-spacing="-.05em">V</tspan><tspan x="42.27" y="0">ariant </tspan></tspan><tspan font-family="MavenPro-Bold, &apos;Maven Pro&apos;" font-variation-settings="&apos;wght&apos; 700" font-weight="700"><tspan x="19.66" y="9.6">Calling</tspan></tspan><tspan font-family="MavenPro-Regular, &apos;Maven Pro&apos;" font-variation-settings="&apos;wght&apos; 400"><tspan x="15.33" y="19.2">ClairS-</tspan><tspan x="39.68" y="19.2" letter-spacing="-.02em">T</tspan><tspan x="44.23" y="19.2">O</tspan></tspan><tspan font-family="MavenPro-Regular, &apos;Maven Pro&apos;" font-variation-settings="&apos;wght&apos; 400"><tspan x="10.66" y="28.8">Dee</tspan><tspan x="24.75" y="28.8" letter-spacing="-.03em">p</tspan><tspan x="29.02" y="28.8" letter-spacing="-.02em">v</tspan><tspan x="33.39" y="28.8">ariant</tspan></tspan></text>
  <circle id="path3447-6-2-4-8" data-name="path3447-6-2-4" cx="396.74" cy="105.42" r="3.34" fill="#fff" stroke="#010101" stroke-linecap="round" stroke-miterlimit="15.12" stroke-width="3"/>
  <circle id="path3447-6-2-4-9" data-name="path3447-6-2-4" cx="396.74" cy="144.29" r="3.34" fill="#fff" stroke="#010101" stroke-linecap="round" stroke-miterlimit="15.12" stroke-width="3"/>
  <text transform="translate(303.73 148.03)" fill="#231f20" font-size="8"><tspan font-family="MavenPro-Bold, &apos;Maven Pro&apos;" font-variation-settings="&apos;wght&apos; 700" font-weight="700"><tspan x="0" y="0">Somatic </tspan><tspan x="33.06" y="0" letter-spacing="-.05em">V</tspan><tspan x="38.33" y="0">ariant </tspan></tspan><tspan font-family="MavenPro-Bold, &apos;Maven Pro&apos;" font-variation-settings="&apos;wght&apos; 700" font-weight="700"><tspan x="17.68" y="9.6">Calling</tspan></tspan><tspan font-family="MavenPro-Regular, &apos;Maven Pro&apos;" font-variation-settings="&apos;wght&apos; 400"><tspan x="20.36" y="19.2">ClairS</tspan></tspan><tspan font-family="MavenPro-Regular, &apos;Maven Pro&apos;" font-variation-settings="&apos;wght&apos; 400"><tspan x="7.14" y="28.8">Deepsomatic</tspan></tspan></text>
  <text transform="translate(302.36 95.98)" fill="#231f20" font-size="8"><tspan font-family="MavenPro-Bold, &apos;Maven Pro&apos;" font-variation-settings="&apos;wght&apos; 700" font-weight="700"><tspan x="0" y="0">Germline </tspan><tspan x="37" y="0" letter-spacing="-.05em">V</tspan><tspan x="42.27" y="0">ariant </tspan></tspan><tspan font-family="MavenPro-Bold, &apos;Maven Pro&apos;" font-variation-settings="&apos;wght&apos; 700" font-weight="700"><tspan x="19.66" y="9.6">Calling</tspan></tspan><tspan font-family="MavenPro-Regular, &apos;Maven Pro&apos;" font-variation-settings="&apos;wght&apos; 400"><tspan x="22.22" y="19.2">Clair3</tspan></tspan><tspan font-family="MavenPro-Regular, &apos;Maven Pro&apos;" font-variation-settings="&apos;wght&apos; 400"><tspan x="10.66" y="28.8">Dee</tspan><tspan x="24.75" y="28.8" letter-spacing="-.03em">p</tspan><tspan x="29.02" y="28.8" letter-spacing="-.02em">v</tspan><tspan x="33.39" y="28.8">ariant</tspan></tspan></text>
  <text transform="translate(406.26 147.9)" fill="#231f20" font-size="8"><tspan font-family="MavenPro-Bold, &apos;Maven Pro&apos;" font-variation-settings="&apos;wght&apos; 700" font-weight="700"><tspan x="0" y="0">Somatic </tspan><tspan x="33.06" y="0" letter-spacing="-.05em">V</tspan><tspan x="38.33" y="0">ariant </tspan></tspan><tspan font-family="MavenPro-Bold, &apos;Maven Pro&apos;" font-variation-settings="&apos;wght&apos; 700" font-weight="700"><tspan x="17.68" y="9.6">Calling</tspan></tspan><tspan font-family="MavenPro-Regular, &apos;Maven Pro&apos;" font-variation-settings="&apos;wght&apos; 400"><tspan x="13.36" y="19.2">ClairS-</tspan><tspan x="37.71" y="19.2" letter-spacing="-.02em">T</tspan><tspan x="42.26" y="19.2">O</tspan></tspan><tspan font-family="MavenPro-Regular, &apos;Maven Pro&apos;" font-variation-settings="&apos;wght&apos; 400"><tspan x="7.14" y="28.8">Deepsomatic</tspan></tspan></text>
  <circle id="path3447-6-2-4-10" data-name="path3447-6-2-4" cx="384.63" cy="192.69" r="3.34" fill="#fff" stroke="#010101" stroke-linecap="round" stroke-miterlimit="15.12" stroke-width="3"/>
  <circle id="path3447-6-2-4-11" data-name="path3447-6-2-4" cx="259.75" cy="171.52" r="3.34" fill="#fff" stroke="#010101" stroke-linecap="round" stroke-miterlimit="15.12" stroke-width="3"/>
  <circle id="path3447-6-2-4-12" data-name="path3447-6-2-4" cx="259.75" cy="214.22" r="3.34" fill="#fff" stroke="#010101" stroke-linecap="round" stroke-miterlimit="15.12" stroke-width="3"/>
  <text transform="translate(231.3 150.83)" fill="#231f20" font-size="8"><tspan font-family="MavenPro-Bold, &apos;Maven Pro&apos;" font-variation-settings="&apos;wght&apos; 700" font-weight="700"><tspan x="0" y="0">Somatic Phasing</tspan></tspan><tspan font-family="MavenPro-Regular, &apos;Maven Pro&apos;" font-variation-settings="&apos;wght&apos; 400"><tspan x="12.07" y="9.6">Longphase</tspan></tspan></text>
  <text transform="translate(265.98 225.58)" fill="#231f20" font-size="8"><tspan font-family="MavenPro-Bold, &apos;Maven Pro&apos;" font-variation-settings="&apos;wght&apos; 700" font-weight="700"><tspan x="0" y="0">Germline Phasing</tspan></tspan><tspan font-family="MavenPro-Regular, &apos;Maven Pro&apos;" font-variation-settings="&apos;wght&apos; 400"><tspan x="14.04" y="9.6">Longphase</tspan></tspan></text>
  <circle id="path3447-6-2-4-13" data-name="path3447-6-2-4" cx="203.14" cy="171.52" r="3.34" fill="#fff" stroke="#010101" stroke-linecap="round" stroke-miterlimit="15.12" stroke-width="3"/>
  <text transform="translate(181.61 150.99)" fill="#231f20" font-size="8"><tspan font-family="MavenPro-Bold, &apos;Maven Pro&apos;" font-variation-settings="&apos;wght&apos; 700" font-weight="700"><tspan x="0" y="0">Annotation</tspan></tspan><tspan font-family="MavenPro-Regular, &apos;Maven Pro&apos;" font-variation-settings="&apos;wght&apos; 400"><tspan x="14.26" y="9.6">VEP</tspan></tspan></text>
  <circle id="path3447-6-2-4-14" data-name="path3447-6-2-4" cx="259.62" cy="235.75" r="3.34" fill="#fff" stroke="#010101" stroke-linecap="round" stroke-miterlimit="15.12" stroke-width="3"/>
  <text transform="translate(208.72 228.19)" fill="#231f20" font-size="8"><tspan font-family="MavenPro-Bold, &apos;Maven Pro&apos;" font-variation-settings="&apos;wght&apos; 700" font-weight="700"><tspan x="0" y="0">Annotation</tspan></tspan><tspan font-family="MavenPro-Regular, &apos;Maven Pro&apos;" font-variation-settings="&apos;wght&apos; 400"><tspan x="14.26" y="9.6">VEP</tspan></tspan></text>
  <circle id="path3447-6-2-4-15" data-name="path3447-6-2-4" cx="159.46" cy="214.22" r="3.34" fill="#fff" stroke="#010101" stroke-linecap="round" stroke-miterlimit="15.12" stroke-width="3"/>
  <text transform="translate(133.81 190.92)" fill="#231f20" font-size="8"><tspan font-family="MavenPro-Bold, &apos;Maven Pro&apos;" font-variation-settings="&apos;wght&apos; 700" font-weight="700"><tspan x="0" y="0">Haplotagging</tspan></tspan><tspan font-family="MavenPro-Regular, &apos;Maven Pro&apos;" font-variation-settings="&apos;wght&apos; 400"><tspan x="5.92" y="9.6">Longphase</tspan></tspan></text>
  <circle id="path3447-6-2-4-16" data-name="path3447-6-2-4" cx="116.79" cy="214.22" r="3.34" fill="#fff" stroke="#010101" stroke-linecap="round" stroke-miterlimit="15.12" stroke-width="3"/>
  <text transform="translate(80.35 228.78)" fill="#231f20" font-size="8"><tspan font-family="MavenPro-Bold, &apos;Maven Pro&apos;" font-variation-settings="&apos;wght&apos; 700" font-weight="700"><tspan x="0" y="0">Structural </tspan><tspan x="40.73" y="0" letter-spacing="-.05em">V</tspan><tspan x="46" y="0">ariants</tspan></tspan><tspan font-family="MavenPro-Regular, &apos;Maven Pro&apos;" font-variation-settings="&apos;wght&apos; 400"><tspan x="22.22" y="9.6">S</tspan><tspan x="26.66" y="9.6" letter-spacing="-.03em">ev</tspan><tspan x="35.01" y="9.6">erus</tspan></tspan></text>
  <circle id="path3447-6-2-4-17" data-name="path3447-6-2-4" cx="259.75" cy="192.69" r="3.34" fill="#fff" stroke="#010101" stroke-linecap="round" stroke-miterlimit="15.12" stroke-width="3"/>
  <text transform="translate(203.45 189.78)" fill="#231f20" font-size="8"><tspan font-family="MavenPro-Bold, &apos;Maven Pro&apos;" font-variation-settings="&apos;wght&apos; 700" font-weight="700"><tspan x="0" y="0">Phasing QC</tspan></tspan><tspan font-family="MavenPro-Regular, &apos;Maven Pro&apos;" font-variation-settings="&apos;wght&apos; 400"><tspan x="-7.35" y="9.6">WhatsHap Stats</tspan></tspan></text>
  <circle id="path3447-6-2-4-18" data-name="path3447-6-2-4" cx="68.4" cy="214.22" r="3.34" fill="#fff" stroke="#010101" stroke-linecap="round" stroke-miterlimit="15.12" stroke-width="3"/>
  <text transform="translate(41.86 178.35)" fill="#231f20" font-size="8"><tspan font-family="MavenPro-Bold, &apos;Maven Pro&apos;" font-variation-settings="&apos;wght&apos; 700" font-weight="700"><tspan x="0" y="0">Allele Specific </tspan></tspan><tspan font-family="MavenPro-Bold, &apos;Maven Pro&apos;" font-variation-settings="&apos;wght&apos; 700" font-weight="700"><tspan x="-1.32" y="9.6">Co</tspan><tspan x="8.44" y="9.6" letter-spacing="-.03em">p</tspan><tspan x="13" y="9.6">y Numbe</tspan><tspan x="47.18" y="9.6" letter-spacing="0em">r</tspan><tspan x="50.55" y="9.6">s</tspan></tspan><tspan font-family="MavenPro-Regular, &apos;Maven Pro&apos;" font-variation-settings="&apos;wght&apos; 400"><tspan x="14.6" y="19.2">ASC</tspan><tspan x="29.16" y="19.2" letter-spacing="-.06em">A</tspan><tspan x="33.82" y="19.2">T</tspan></tspan><tspan font-family="MavenPro-Regular, &apos;Maven Pro&apos;" font-variation-settings="&apos;wght&apos; 400"><tspan x="11.78" y="28.8" letter-spacing="-.05em">W</tspan><tspan x="19.19" y="28.8">akhan</tspan></tspan></text>
  <circle id="path3447-6-2-4-19" data-name="path3447-6-2-4" cx="27.11" cy="214.22" r="3.34" fill="#fff" stroke="#010101" stroke-linecap="round" stroke-miterlimit="15.12" stroke-width="3"/>
  <text transform="translate(11.93 228.35)" fill="#231f20" font-family="MavenPro-Bold, &apos;Maven Pro&apos;" font-size="8" font-variation-settings="&apos;wght&apos; 700" font-weight="700"><tspan x="0" y="0">MultiQC</tspan></text>
  <g clip-path="url(#clippath)">
    <path d="M71.99,99.19c-5.41-.66-9.22-4.55-9.22-9.58,0-2.05.74-4.26,1.97-5.73-.53-1.35-.45-4.22.16-5.41,1.64-.2,3.85.66,5.16,1.84,1.56-.49,3.19-.74,5.2-.74s3.65.25,5.12.7c1.27-1.15,3.52-2.01,5.16-1.8.57,1.11.66,3.97.12,5.37,1.31,1.56,2.01,3.65,2.01,5.77,0,5.04-3.81,8.85-9.3,9.54,1.39.9,2.33,2.87,2.33,5.12v4.26c0,1.23,1.02,1.92,2.25,1.43,7.41-2.83,13.23-10.24,13.23-19.41,0-11.59-9.42-21.05-21.01-21.05-11.59,0-20.93,9.46-20.93,21.05,0,9.09,5.77,16.63,13.56,19.45,1.11.41,2.17-.33,2.17-1.43v-3.28c-.57.25-1.31.41-1.97.41-2.7,0-4.3-1.47-5.45-4.22-.45-1.11-.94-1.76-1.88-1.88-.49-.04-.66-.25-.66-.49,0-.49.82-.86,1.64-.86,1.19,0,2.21.74,3.28,2.25.82,1.19,1.68,1.72,2.7,1.72s1.68-.37,2.62-1.31c.7-.7,1.23-1.31,1.72-1.72Z" fill="#010101"/>
  </g>
  <g>
    <g>
      <path d="M129.78,70.14c0,.36.29.65.65.65h0c.36,0,.65-.29.65-.65h0c0-.36-.29-.65-.65-.65h0c-.36,0-.65.29-.65.65ZM125.88,69.5v1.95c0,.36.29.65.65.65h0c.36,0,.65-.29.65-.65h0v-1.3c0-.36-.29-.65-.65-.65h-.65ZM124.59,69.5v1.3h1.3v-1.3h-1.3ZM123.29,69.5v1.3h1.3v-1.3h-1.3ZM122.64,69.5c-.36,0-.65.29-.65.65h0v1.95h.65c.36,0,.65-.29.65-.65h0v-1.95h-.65ZM115.5,70.14v2.6c0,.36.29.65.65.65h.65v-3.25c0-.36-.29-.65-.65-.65h0c-.36,0-.65.29-.65.65ZM112.9,70.14v1.95h1.3v-1.95c0-.36-.29-.65-.65-.65h0c-.36,0-.65.29-.65.65ZM110.3,70.14v3.25h.65c.36,0,.65-.29.65-.65h0v-2.6c0-.36-.29-.65-.65-.65h0c-.36,0-.65.29-.65.65ZM128.48,71.44v1.95h.65c.36,0,.65-.29.65-.65h0v-1.3c0-.36-.29-.65-.65-.65h0c-.36,0-.65.29-.65.65ZM120.69,70.79v1.3h1.3v-1.3h-1.3ZM120.04,70.79c-.36,0-.65.29-.65.65h0c0,.36.29.65.65.65h.65v-1.3h-.65ZM116.8,70.79v5.19h.65c.36,0,.65-.29.65-.65h0v-3.9c0-.36-.29-.65-.65-.65h-.65ZM114.2,70.79v1.3h1.3v-1.3h-1.3ZM111.6,70.79v1.3h1.3v-1.3h-1.3ZM109.65,70.79c-.36,0-.65.29-.65.65h0v2.6c0,.36.29.65.65.65h0c.36,0,.65-.29.65-.65h0v-3.25h-.65ZM127.83,72.09c-.36,0-.65.29-.65.65h0v1.95h.65c.36,0,.65-.29.65-.65h0v-1.95h-.65ZM118.09,72.09v2.6h1.3v-1.95c0-.36-.29-.65-.65-.65h-.65ZM125.88,73.39v2.6h.65c.36,0,.65-.29.65-.65h0v-1.95h-1.3ZM124.59,73.39v4.54c0,.36.29.65.65.65h0c.36,0,.65-.29.65-.65h0v-4.54h-1.3ZM123.94,73.39c-.36,0-.65.29-.65.65h0v1.3c0,.36.29.65.65.65h.65v-2.6h-.65ZM120.69,73.39v1.3h.65c.36,0,.65-.29.65-.65h0c0-.36-.29-.65-.65-.65h-.65ZM119.39,73.39v7.14c0,.36.29.65.65.65h0c.36,0,.65-.29.65-.65h0v-7.14h-1.3ZM112.9,73.39v1.3h.65c.36,0,.65-.29.65-.65h0c0-.36-.29-.65-.65-.65h-.65ZM112.25,73.39c-.36,0-.65.29-.65.65h0c0,.36.29.65.65.65h.65v-1.3h-.65ZM129.78,75.34v3.9c0,.36.29.65.65.65h0c.36,0,.65-.29.65-.65h0v-3.9c0-.36-.29-.65-.65-.65h0c-.36,0-.65.29-.65.65ZM116.15,74.69c-.36,0-.65.29-.65.65h0c0,.36.29.65.65.65h.65v-1.3h-.65ZM127.18,76.64v4.54h.65c.36,0,.65-.29.65-.65h0v-3.89c0-.36-.29-.65-.65-.65h0c-.36,0-.65.29-.65.65ZM120.69,75.99v1.3h.65c.36,0,.65-.29.65-.65h0c0-.36-.29-.65-.65-.65h-.65ZM114.2,75.99v1.95c0,.36.29.65.65.65h0c.36,0,.65-.29.65-.65h0v-1.3c0-.36-.29-.65-.65-.65h-.65ZM112.9,75.99v1.3h1.3v-1.3h-1.3ZM112.25,75.99c-.36,0-.65.29-.65.65h0v1.3c0,.36.29.65.65.65h0c.36,0,.65-.29.65-.65h0v-1.95h-.65ZM109.01,76.64v1.3c0,.36.29.65.65.65h0c.36,0,.65-.29.65-.65h0v-1.3c0-.36-.29-.65-.65-.65h0c-.36,0-.65.29-.65.65ZM121.99,77.93c0,.36.29.65.65.65h0c.36,0,.65-.29.65-.65h0c0-.36-.29-.65-.65-.65h0c-.36,0-.65.29-.65.65ZM116.8,77.93c0,.36.29.65.65.65h0c.36,0,.65-.29.65-.65h0c0-.36-.29-.65-.65-.65h0c-.36,0-.65.29-.65.65ZM123.29,79.23v2.6c0,.36.29.65.65.65h0c.36,0,.65-.29.65-.65h0v-2.6c0-.36-.29-.65-.65-.65h0c-.36,0-.65.29-.65.65ZM115.5,79.23v8.44h1.3v-8.44c0-.36-.29-.65-.65-.65h0c-.36,0-.65.29-.65.65ZM138.87,79.88v3.25c0,.36.29.65.65.65h0c.36,0,.65-.29.65-.65h0v-2.6c0-.36-.29-.65-.65-.65h-.65ZM137.57,79.88v1.3h1.3v-1.3h-1.3ZM136.92,79.88c-.36,0-.65.29-.65.65h0c0,.36.29.65.65.65h.65v-1.3h-.65ZM133.67,80.53v4.54h1.3v-4.54c0-.36-.29-.65-.65-.65h0c-.36,0-.65.29-.65.65ZM131.08,80.53c0,.36.29.65.65.65h0c.36,0,.65-.29.65-.65h0c0-.36-.29-.65-.65-.65h0c-.36,0-.65.29-.65.65ZM125.88,79.88v1.95c0,.36.29.65.65.65h0c.36,0,.65-.29.65-.65h0v-1.95h-1.3ZM124.59,79.88v1.3h1.3v-1.3h-1.3ZM114.2,79.88v3.25c0,.36.29.65.65.65h.65v-3.89h-1.3ZM113.55,79.88c-.36,0-.65.29-.65.65h0v1.95h1.3v-2.6h-.65ZM110.3,80.53c0,.36.29.65.65.65h0c.36,0,.65-.29.65-.65h0c0-.36-.29-.65-.65-.65h0c-.36,0-.65.29-.65.65ZM106.41,80.53c0,.36.29.65.65.65h0c.36,0,.65-.29.65-.65h0c0-.36-.29-.65-.65-.65h0c-.36,0-.65.29-.65.65ZM101.22,79.88v1.3h.65c.36,0,.65-.29.65-.65h0c0-.36-.29-.65-.65-.65h-.65ZM100.57,79.88c-.36,0-.65.29-.65.65h0v10.39c0,.36.29.65.65.65h.65v-11.69h-.65ZM134.97,81.18v3.9h.65c.36,0,.65-.29.65-.65h0v-2.6c0-.36-.29-.65-.65-.65h-.65ZM129.78,81.18v1.3h.65c.36,0,.65-.29.65-.65h0c0-.36-.29-.65-.65-.65h-.65ZM129.13,81.18c-.36,0-.65.29-.65.65h0c0,.36.29.65.65.65h.65v-1.3h-.65ZM120.69,81.83v4.54h.65c.36,0,.65-.29.65-.65h0v-3.9c0-.36-.29-.65-.65-.65h0c-.36,0-.65.29-.65.65ZM116.8,81.18v1.3h.65c.36,0,.65-.29.65-.65h0c0-.36-.29-.65-.65-.65h-.65ZM112.25,81.18c-.36,0-.65.29-.65.65h0v1.3c0,.36.29.65.65.65h0c.36,0,.65-.29.65-.65h0v-1.95h-.65ZM109.01,81.83v1.95h.65c.36,0,.65-.29.65-.65h0v-1.3c0-.36-.29-.65-.65-.65h0c-.36,0-.65.29-.65.65ZM132.38,82.48v2.6h1.3v-2.6h-1.3ZM131.73,82.48c-.36,0-.65.29-.65.65h0v1.95h1.3v-2.6h-.65ZM127.18,83.13v3.25h.65c.36,0,.65-.29.65-.65h0v-2.6c0-.36-.29-.65-.65-.65h0c-.36,0-.65.29-.65.65ZM124.59,83.13c0,.36.29.65.65.65h0c.36,0,.65-.29.65-.65h0c0-.36-.29-.65-.65-.65h0c-.36,0-.65.29-.65.65ZM118.09,83.13c0,.36.29.65.65.65h0c.36,0,.65-.29.65-.65h0c0-.36-.29-.65-.65-.65h0c-.36,0-.65.29-.65.65ZM107.71,82.48v6.49h.65c.36,0,.65-.29.65-.65h0v-5.84h-1.3ZM106.41,82.48v1.3h1.3v-1.3h-1.3ZM105.76,82.48c-.36,0-.65.29-.65.65h0c0,.36.29.65.65.65h.65v-1.3h-.65ZM99.27,82.48c-.36,0-.65.29-.65.65h0c0,.36.29.65.65.65h.65v-1.3h-.65ZM137.57,84.43v2.6c0,.36.29.65.65.65h.65v-3.25c0-.36-.29-.65-.65-.65h0c-.36,0-.65.29-.65.65ZM130.43,83.78c-.36,0-.65.29-.65.65h0c0,.36.29.65.65.65h.65v-1.3h-.65ZM126.53,83.78c-.36,0-.65.29-.65.65h0v6.49c0,.36.29.65.65.65h0c.36,0,.65-.29.65-.65h0v-7.14h-.65ZM121.99,83.78v1.3h.65c.36,0,.65-.29.65-.65h0c0-.36-.29-.65-.65-.65h-.65ZM120.04,83.78c-.36,0-.65.29-.65.65h0v2.6c0,.36.29.65.65.65h0c.36,0,.65-.29.65-.65h0v-3.25h-.65ZM116.8,83.78v1.3h.65c.36,0,.65-.29.65-.65h0c0-.36-.29-.65-.65-.65h-.65ZM103.81,84.43c0,.36.29.65.65.65h0c.36,0,.65-.29.65-.65h0c0-.36-.29-.65-.65-.65h0c-.36,0-.65.29-.65.65ZM101.22,83.78v2.6h.65c.36,0,.65-.29.65-.65h0v-1.3c0-.36-.29-.65-.65-.65h-.65ZM140.17,85.72v1.95h.65c.36,0,.65-.29.65-.65h0v-1.3c0-.36-.29-.65-.65-.65h0c-.36,0-.65.29-.65.65ZM136.92,85.08c-.36,0-.65.29-.65.65h0c0,.36.29.65.65.65h.65v-1.3h-.65ZM124.59,85.08v1.3h1.3v-1.3h-1.3ZM123.94,85.08c-.36,0-.65.29-.65.65h0c0,.36.29.65.65.65h.65v-1.3h-.65ZM114.2,85.08v3.25c0,.36.29.65.65.65h0c.36,0,.65-.29.65-.65h0v-3.25h-1.3ZM113.55,85.08c-.36,0-.65.29-.65.65h0v1.3c0,.36.29.65.65.65h.65v-2.6h-.65ZM109.01,85.08v2.6h.65c.36,0,.65-.29.65-.65h0v-1.3c0-.36-.29-.65-.65-.65h-.65ZM107.06,85.08c-.36,0-.65.29-.65.65h0c0,.36.29.65.65.65h.65v-1.3h-.65ZM99.27,85.08c-.36,0-.65.29-.65.65h0v1.3c0,.36.29.65.65.65h.65v-2.6h-.65ZM138.87,86.37v3.25c0,.36.29.65.65.65h.65v-3.9h-1.3ZM134.97,87.02c0,.36.29.65.65.65h0c.36,0,.65-.29.65-.65h0c0-.36-.29-.65-.65-.65h0c-.36,0-.65.29-.65.65ZM132.38,87.02c0,.36.29.65.65.65h0c.36,0,.65-.29.65-.65h0c0-.36-.29-.65-.65-.65h0c-.36,0-.65.29-.65.65ZM129.78,86.37v1.3h.65c.36,0,.65-.29.65-.65h0c0-.36-.29-.65-.65-.65h-.65ZM129.13,86.37c-.36,0-.65.29-.65.65h0v2.6c0,.36.29.65.65.65h.65v-3.9h-.65ZM116.8,86.37v1.95c0,.36.29.65.65.65h.65v-1.95c0-.36-.29-.65-.65-.65h-.65ZM103.81,87.02c0,.36.29.65.65.65h0c.36,0,.65-.29.65-.65h0c0-.36-.29-.65-.65-.65h0c-.36,0-.65.29-.65.65ZM133.67,88.32v5.84h1.3v-5.84c0-.36-.29-.65-.65-.65h0c-.36,0-.65.29-.65.65ZM131.08,88.32c0,.36.29.65.65.65h0c.36,0,.65-.29.65-.65h0c0-.36-.29-.65-.65-.65h0c-.36,0-.65.29-.65.65ZM121.99,87.67v1.95c0,.36.29.65.65.65h.65v-1.95c0-.36-.29-.65-.65-.65h-.65ZM121.34,87.67c-.36,0-.65.29-.65.65h0c0,.36.29.65.65.65h.65v-1.3h-.65ZM118.09,87.67v1.3h.65c.36,0,.65-.29.65-.65h0c0-.36-.29-.65-.65-.65h-.65ZM106.41,87.67v1.3h1.3v-1.3h-1.3ZM105.76,87.67c-.36,0-.65.29-.65.65h0c0,.36.29.65.65.65h.65v-1.3h-.65ZM140.17,88.97v1.3h.65c.36,0,.65-.29.65-.65h0c0-.36-.29-.65-.65-.65h-.65ZM133.02,88.97c-.36,0-.65.29-.65.65h0v1.95h1.3v-2.6h-.65ZM129.78,88.97v5.19h.65c.36,0,.65-.29.65-.65h0v-3.9c0-.36-.29-.65-.65-.65h-.65ZM124.59,88.97v1.3h1.3v-1.3h-1.3ZM123.29,88.97v1.3h1.3v-1.3h-1.3ZM119.39,89.62c0,.36.29.65.65.65h0c.36,0,.65-.29.65-.65h0c0-.36-.29-.65-.65-.65h0c-.36,0-.65.29-.65.65ZM110.3,88.97v1.3h.65c.36,0,.65-.29.65-.65h0c0-.36-.29-.65-.65-.65h-.65ZM109.65,88.97c-.36,0-.65.29-.65.65h0c0,.36.29.65.65.65h.65v-1.3h-.65ZM101.22,88.97v2.6h.65c.36,0,.65-.29.65-.65h0v-1.3c0-.36-.29-.65-.65-.65h-.65ZM136.27,90.92c0,.36.29.65.65.65h0c.36,0,.65-.29.65-.65h0c0-.36-.29-.65-.65-.65h0c-.36,0-.65.29-.65.65ZM131.08,90.27v1.3h1.3v-1.3h-1.3ZM120.69,90.92v1.95h1.3v-1.95c0-.36-.29-.65-.65-.65h0c-.36,0-.65.29-.65.65ZM115.5,90.27v1.3h.65c.36,0,.65-.29.65-.65h0c0-.36-.29-.65-.65-.65h-.65ZM114.2,90.27v1.3h1.3v-1.3h-1.3ZM113.55,90.27c-.36,0-.65.29-.65.65h0v1.3c0,.36.29.65.65.65h0c.36,0,.65-.29.65-.65h0v-1.95h-.65ZM107.71,90.27v1.95c0,.36.29.65.65.65h0c.36,0,.65-.29.65-.65h0v-1.3c0-.36-.29-.65-.65-.65h-.65ZM106.41,90.27v1.3h1.3v-1.3h-1.3ZM105.11,90.27v1.3h1.3v-1.3h-1.3ZM104.46,90.27c-.36,0-.65.29-.65.65h0v1.3c0,.36.29.65.65.65h0c.36,0,.65-.29.65-.65h0v-1.95h-.65ZM137.57,92.22c0,.36.29.65.65.65h0c.36,0,.65-.29.65-.65h0c0-.36-.29-.65-.65-.65h0c-.36,0-.65.29-.65.65ZM128.48,91.57v5.19h.65c.36,0,.65-.29.65-.65h0v-4.54h-1.3ZM127.83,91.57c-.36,0-.65.29-.65.65h0c0,.36.29.65.65.65h.65v-1.3h-.65ZM121.99,91.57v1.3h.65c.36,0,.65-.29.65-.65h0c0-.36-.29-.65-.65-.65h-.65ZM119.39,91.57v7.14c0,.36.29.65.65.65h.65v-7.79h-1.3ZM118.74,91.57c-.36,0-.65.29-.65.65h0v1.95h1.3v-2.6h-.65ZM110.3,92.22v5.84h1.3v-5.84c0-.36-.29-.65-.65-.65h0c-.36,0-.65.29-.65.65ZM98.62,92.22c0,.36.29.65.65.65h0c.36,0,.65-.29.65-.65h0c0-.36-.29-.65-.65-.65h0c-.36,0-.65.29-.65.65ZM140.17,92.87v1.95c0,.36.29.65.65.65h0c.36,0,.65-.29.65-.65h0v-1.3c0-.36-.29-.65-.65-.65h-.65ZM139.52,92.87c-.36,0-.65.29-.65.65h0c0,.36.29.65.65.65h.65v-1.3h-.65ZM134.97,92.87v1.95c0,.36.29.65.65.65h0c.36,0,.65-.29.65-.65h0v-1.3c0-.36-.29-.65-.65-.65h-.65ZM133.02,92.87c-.36,0-.65.29-.65.65h0v3.25h1.3v-3.9h-.65ZM117.44,92.87c-.36,0-.65.29-.65.65h0v4.54h1.3v-5.19h-.65ZM111.6,92.87v1.3h.65c.36,0,.65-.29.65-.65h0c0-.36-.29-.65-.65-.65h-.65ZM109.65,92.87c-.36,0-.65.29-.65.65h0v1.95h1.3v-2.6h-.65ZM106.41,92.87v1.3h.65c.36,0,.65-.29.65-.65h0c0-.36-.29-.65-.65-.65h-.65ZM105.76,92.87c-.36,0-.65.29-.65.65h0v5.84h1.3v-6.49h-.65ZM102.51,92.87v1.95c0,.36.29.65.65.65h.65v-1.95c0-.36-.29-.65-.65-.65h-.65ZM101.22,92.87v1.3h1.3v-1.3h-1.3ZM100.57,92.87c-.36,0-.65.29-.65.65h0c0,.36.29.65.65.65h.65v-1.3h-.65ZM131.73,94.16c-.36,0-.65.29-.65.65h0v2.6c0,.36.29.65.65.65h0c.36,0,.65-.29.65-.65h0v-3.25h-.65ZM125.88,94.81v3.25h1.3v-3.25c0-.36-.29-.65-.65-.65h0c-.36,0-.65.29-.65.65ZM123.29,94.81c0,.36.29.65.65.65h0c.36,0,.65-.29.65-.65h0c0-.36-.29-.65-.65-.65h0c-.36,0-.65.29-.65.65ZM120.69,94.16v10.39h.65c.36,0,.65-.29.65-.65h0v-9.09c0-.36-.29-.65-.65-.65h-.65ZM115.5,94.16v1.3h1.3v-1.3h-1.3ZM114.2,94.16v1.3h1.3v-1.3h-1.3ZM113.55,94.16c-.36,0-.65.29-.65.65h0c0,.36.29.65.65.65h.65v-1.3h-.65ZM108.36,94.16c-.36,0-.65.29-.65.65h0v1.95h.65c.36,0,.65-.29.65-.65h0v-1.95h-.65ZM103.81,94.16v1.95c0,.36.29.65.65.65h.65v-2.6h-1.3ZM98.62,94.81v1.3c0,.36.29.65.65.65h.65v-1.95c0-.36-.29-.65-.65-.65h0c-.36,0-.65.29-.65.65ZM138.87,95.46v1.3h.65c.36,0,.65-.29.65-.65h0c0-.36-.29-.65-.65-.65h-.65ZM137.57,95.46v1.3h1.3v-1.3h-1.3ZM136.92,95.46c-.36,0-.65.29-.65.65h0v4.54h.65c.36,0,.65-.29.65-.65h0v-4.54h-.65ZM133.67,95.46v6.49h1.3v-5.84c0-.36-.29-.65-.65-.65h-.65ZM127.18,95.46v2.6h.65c.36,0,.65-.29.65-.65h0v-1.95h-1.3ZM121.99,95.46v1.3h.65c.36,0,.65-.29.65-.65h0c0-.36-.29-.65-.65-.65h-.65ZM106.41,95.46v1.3h1.3v-1.3h-1.3ZM101.22,95.46v1.3h.65c.36,0,.65-.29.65-.65h0c0-.36-.29-.65-.65-.65h-.65ZM99.92,95.46v5.84c0,.36.29.65.65.65h.65v-6.49h-1.3ZM140.17,97.41c0,.36.29.65.65.65h0c.36,0,.65-.29.65-.65h0c0-.36-.29-.65-.65-.65h0c-.36,0-.65.29-.65.65ZM134.97,96.76v10.39h.65c.36,0,.65-.29.65-.65h0v-9.74h-1.3ZM125.23,96.76c-.36,0-.65.29-.65.65h0c0,.36.29.65.65.65h.65v-1.3h-.65ZM118.09,96.76v1.3h1.3v-1.3h-1.3ZM116.15,96.76c-.36,0-.65.29-.65.65h0c0,.36.29.65.65.65h.65v-1.3h-.65ZM111.6,96.76v1.3h.65c.36,0,.65-.29.65-.65h0c0-.36-.29-.65-.65-.65h-.65ZM109.65,96.76c-.36,0-.65.29-.65.65h0v1.3c0,.36.29.65.65.65h0c.36,0,.65-.29.65-.65h0v-1.95h-.65ZM138.87,98.06v3.25c0,.36.29.65.65.65h0c.36,0,.65-.29.65-.65h0v-2.6c0-.36-.29-.65-.65-.65h-.65ZM137.57,98.06v1.3h1.3v-1.3h-1.3ZM129.78,98.71v8.44h1.3v-8.44c0-.36-.29-.65-.65-.65h0c-.36,0-.65.29-.65.65ZM123.29,98.06v5.84c0,.36.29.65.65.65h0c.36,0,.65-.29.65-.65h0v-5.19c0-.36-.29-.65-.65-.65h-.65ZM121.99,98.06v1.3h1.3v-1.3h-1.3ZM114.2,98.71v1.3c0,.36.29.65.65.65h0c.36,0,.65-.29.65-.65h0v-1.3c0-.36-.29-.65-.65-.65h0c-.36,0-.65.29-.65.65ZM106.41,98.06v1.3h.65c.36,0,.65-.29.65-.65h0c0-.36-.29-.65-.65-.65h-.65ZM103.81,98.06v3.25c0,.36.29.65.65.65h0c.36,0,.65-.29.65-.65h0v-3.25h-1.3ZM103.16,98.06c-.36,0-.65.29-.65.65h0c0,.36.29.65.65.65h.65v-1.3h-.65ZM133.02,99.36c-.36,0-.65.29-.65.65h0v1.95h1.3v-2.6h-.65ZM128.48,99.36v2.6h1.3v-2.6h-1.3ZM127.18,99.36v7.14c0,.36.29.65.65.65h.65v-7.79h-1.3ZM126.53,99.36c-.36,0-.65.29-.65.65h0c0,.36.29.65.65.65h.65v-1.3h-.65ZM111.6,99.36v1.3h.65c.36,0,.65-.29.65-.65h0c0-.36-.29-.65-.65-.65h-.65ZM110.95,99.36c-.36,0-.65.29-.65.65h0c0,.36.29.65.65.65h.65v-1.3h-.65ZM99.27,99.36c-.36,0-.65.29-.65.65h0c0,.36.29.65.65.65h.65v-1.3h-.65ZM131.08,100.66v1.3h1.3v-1.3h-1.3ZM121.99,100.66v1.3h1.3v-1.3h-1.3ZM115.5,101.3c0,.36.29.65.65.65h0c.36,0,.65-.29.65-.65h0c0-.36-.29-.65-.65-.65h0c-.36,0-.65.29-.65.65ZM109.01,101.3c0,.36.29.65.65.65h0c.36,0,.65-.29.65-.65h0c0-.36-.29-.65-.65-.65h0c-.36,0-.65.29-.65.65ZM106.41,101.3c0,.36.29.65.65.65h0c.36,0,.65-.29.65-.65h0c0-.36-.29-.65-.65-.65h0c-.36,0-.65.29-.65.65ZM101.22,100.66v1.3h.65c.36,0,.65-.29.65-.65h0c0-.36-.29-.65-.65-.65h-.65ZM140.17,102.6v1.95h.65c.36,0,.65-.29.65-.65h0v-1.3c0-.36-.29-.65-.65-.65h0c-.36,0-.65.29-.65.65ZM119.39,101.95v2.6h1.3v-2.6h-1.3ZM118.74,101.95c-.36,0-.65.29-.65.65h0v3.25h.65c.36,0,.65-.29.65-.65h0v-3.25h-.65ZM114.2,101.95v1.3h.65c.36,0,.65-.29.65-.65h0c0-.36-.29-.65-.65-.65h-.65ZM112.9,101.95v1.3h1.3v-1.3h-1.3ZM112.25,101.95c-.36,0-.65.29-.65.65h0c0,.36.29.65.65.65h.65v-1.3h-.65ZM138.87,103.25v3.25c0,.36.29.65.65.65h.65v-3.89h-1.3ZM138.22,103.25c-.36,0-.65.29-.65.65h0v1.95h1.3v-2.6h-.65ZM132.38,103.9c0,.36.29.65.65.65h0c.36,0,.65-.29.65-.65h0c0-.36-.29-.65-.65-.65h0c-.36,0-.65.29-.65.65ZM128.48,103.25v1.3h1.3v-1.3h-1.3ZM126.53,103.25c-.36,0-.65.29-.65.65h0c0,.36.29.65.65.65h.65v-1.3h-.65ZM117.44,103.25c-.36,0-.65.29-.65.65h0v1.95h1.3v-2.6h-.65ZM110.3,103.9v1.3c0,.36.29.65.65.65h.65v-1.95c0-.36-.29-.65-.65-.65h0c-.36,0-.65.29-.65.65ZM136.27,104.55v1.3h1.3v-1.3h-1.3ZM124.59,105.2c0,.36.29.65.65.65h0c.36,0,.65-.29.65-.65h0c0-.36-.29-.65-.65-.65h0c-.36,0-.65.29-.65.65ZM121.99,105.2v1.95h1.3v-1.95c0-.36-.29-.65-.65-.65h0c-.36,0-.65.29-.65.65ZM115.5,104.55v1.3h1.3v-1.3h-1.3ZM114.2,104.55v1.3h1.3v-1.3h-1.3ZM112.9,104.55v1.3h1.3v-1.3h-1.3ZM111.6,104.55v3.9h1.3v-3.9h-1.3ZM140.17,105.85v1.3h.65c.36,0,.65-.29.65-.65h0c0-.36-.29-.65-.65-.65h-.65ZM133.67,105.85v5.84c0,.36.29.65.65.65h.65v-6.49h-1.3ZM132.38,105.85v1.3h1.3v-1.3h-1.3ZM131.08,105.85v1.95c0,.36.29.65.65.65h0c.36,0,.65-.29.65-.65h0v-1.95h-1.3ZM128.48,105.85v1.95c0,.36.29.65.65.65h0c.36,0,.65-.29.65-.65h0v-1.95h-1.3ZM123.29,105.85v1.3h.65c.36,0,.65-.29.65-.65h0c0-.36-.29-.65-.65-.65h-.65ZM120.69,105.85v2.6h.65c.36,0,.65-.29.65-.65h0v-1.95h-1.3ZM120.04,105.85c-.36,0-.65.29-.65.65h0v3.25h.65c.36,0,.65-.29.65-.65h0v-3.25h-.65ZM137.57,107.8v1.95h.65c.36,0,.65-.29.65-.65h0v-1.3c0-.36-.29-.65-.65-.65h0c-.36,0-.65.29-.65.65ZM125.88,107.15v1.3h.65c.36,0,.65-.29.65-.65h0c0-.36-.29-.65-.65-.65h-.65ZM125.23,107.15c-.36,0-.65.29-.65.65h0v1.3c0,.36.29.65.65.65h0c.36,0,.65-.29.65-.65h0v-1.95h-.65ZM118.09,107.15v2.6h1.3v-2.6h-1.3ZM117.44,107.15c-.36,0-.65.29-.65.65h0v1.95h1.3v-2.6h-.65ZM114.2,107.15v1.3h.65c.36,0,.65-.29.65-.65h0c0-.36-.29-.65-.65-.65h-.65ZM112.9,107.15v1.3h1.3v-1.3h-1.3ZM110.95,107.15c-.36,0-.65.29-.65.65h0v1.95h.65c.36,0,.65-.29.65-.65h0v-1.95h-.65ZM140.17,109.1c0,.36.29.65.65.65h0c.36,0,.65-.29.65-.65h0c0-.36-.29-.65-.65-.65h0c-.36,0-.65.29-.65.65ZM136.27,108.45v3.89h.65c.36,0,.65-.29.65-.65h0v-3.25h-1.3ZM134.97,108.45v3.89h1.3v-3.89h-1.3ZM121.99,109.1v1.95h1.3v-1.95c0-.36-.29-.65-.65-.65h0c-.36,0-.65.29-.65.65ZM116.15,108.45c-.36,0-.65.29-.65.65h0v1.95h.65c.36,0,.65-.29.65-.65h0v-1.95h-.65ZM109.65,108.45c-.36,0-.65.29-.65.65h0v1.3c0,.36.29.65.65.65h0c.36,0,.65-.29.65-.65h0v-1.95h-.65ZM129.78,110.39v1.3c0,.36.29.65.65.65h0c.36,0,.65-.29.65-.65h0v-1.3c0-.36-.29-.65-.65-.65h0c-.36,0-.65.29-.65.65ZM127.18,110.39v1.95h.65c.36,0,.65-.29.65-.65h0v-1.3c0-.36-.29-.65-.65-.65h0c-.36,0-.65.29-.65.65ZM123.29,109.74v1.95c0,.36.29.65.65.65h0c.36,0,.65-.29.65-.65h0v-1.3c0-.36-.29-.65-.65-.65h-.65ZM121.34,109.74c-.36,0-.65.29-.65.65h0v1.3c0,.36.29.65.65.65h0c.36,0,.65-.29.65-.65h0v-1.95h-.65ZM114.2,109.74v2.6h.65c.36,0,.65-.29.65-.65h0v-1.95h-1.3ZM112.9,109.74v2.6h1.3v-2.6h-1.3ZM112.25,109.74c-.36,0-.65.29-.65.65h0v1.95h1.3v-2.6h-.65ZM138.87,111.69c0,.36.29.65.65.65h0c.36,0,.65-.29.65-.65h0c0-.36-.29-.65-.65-.65h0c-.36,0-.65.29-.65.65ZM126.53,111.04c-.36,0-.65.29-.65.65h0c0,.36.29.65.65.65h.65v-1.3h-.65ZM110.95,111.04c-.36,0-.65.29-.65.65h0c0,.36.29.65.65.65h.65v-1.3h-.65Z" fill="#231f20"/>
      <g clip-path="url(#clippath-1)">
        <rect x="96.86" y="67.73" width="46.37" height="46.37" fill="#231f20"/>
      </g>
    </g>
    <g>
      <path d="M98.62,72.74v2.6c0,1.79,1.45,3.25,3.25,3.25h2.6c1.79,0,3.25-1.45,3.25-3.25v-2.6c0-1.79-1.45-3.25-3.25-3.25h-2.6c-1.79,0-3.25,1.45-3.25,3.25M101.86,70.79h2.6c1.08,0,1.95.87,1.95,1.95v2.6c0,1.08-.87,1.95-1.95,1.95h-2.6c-1.08,0-1.95-.87-1.95-1.95v-2.6c0-1.08.87-1.95,1.95-1.95Z" fill="#231f20"/>
      <g clip-path="url(#clippath-2)">
        <rect x="98.62" y="69.5" width="9.09" height="9.09" fill="#231f20"/>
      </g>
    </g>
    <g>
      <circle cx="103.16" cy="74.04" r="1.95" fill="#231f20"/>
      <g clip-path="url(#clippath-3)">
        <rect x="101.22" y="72.09" width="3.9" height="3.9" fill="#231f20"/>
      </g>
    </g>
    <g>
      <path d="M138.22,69.5h-2.6c-1.79,0-3.25,1.45-3.25,3.25v2.6c0,1.79,1.45,3.25,3.25,3.25h2.6c1.79,0,3.25-1.45,3.25-3.25v-2.6c0-1.79-1.45-3.25-3.25-3.25M140.17,72.74v2.6c0,1.08-.87,1.95-1.95,1.95h-2.6c-1.08,0-1.95-.87-1.95-1.95v-2.6c0-1.08.87-1.95,1.95-1.95h2.6c1.08,0,1.95.87,1.95,1.95Z" fill="#231f20"/>
      <g clip-path="url(#clippath-4)">
        <rect x="132.38" y="69.5" width="9.09" height="9.09" fill="#231f20"/>
      </g>
    </g>
    <g>
      <circle cx="136.92" cy="74.04" r="1.95" fill="#231f20"/>
      <g clip-path="url(#clippath-5)">
        <rect x="134.97" y="72.09" width="3.9" height="3.9" fill="#231f20"/>
      </g>
    </g>
    <g>
      <path d="M101.86,112.34h2.6c1.79,0,3.25-1.45,3.25-3.25v-2.6c0-1.79-1.45-3.25-3.25-3.25h-2.6c-1.79,0-3.25,1.45-3.25,3.25v2.6c0,1.79,1.45,3.25,3.25,3.25M99.92,109.09v-2.6c0-1.08.87-1.95,1.95-1.95h2.6c1.08,0,1.95.87,1.95,1.95v2.6c0,1.08-.87,1.95-1.95,1.95h-2.6c-1.08,0-1.95-.87-1.95-1.95Z" fill="#231f20"/>
      <g clip-path="url(#clippath-6)">
        <rect x="98.62" y="103.25" width="9.09" height="9.09" fill="#231f20"/>
      </g>
    </g>
    <g>
      <circle cx="103.16" cy="107.8" r="1.95" fill="#231f20"/>
      <g clip-path="url(#clippath-7)">
        <rect x="101.22" y="105.85" width="3.9" height="3.9" fill="#231f20"/>
      </g>
    </g>
  </g>
  <text transform="translate(41.16 132.76)" fill="#231f20" font-family="MavenPro-Black, &apos;Maven Pro&apos;" font-size="22.43" font-variation-settings="&apos;wght&apos; 900" font-weight="800"><tspan x="0" y="0">LRSomatic</tspan></text>
  <g>
    <path d="M42.38,141.66c3.02.2,5.44,2.62,5.63,5.65h3.52c-.2-4.97-4.18-8.96-9.15-9.17v3.53Z" fill="#2eba9b"/>
    <path d="M48.03,148.11c-.2,3.02-2.62,5.44-5.65,5.63v3.52c4.97-.2,8.96-4.18,9.17-9.15h-3.53Z" fill="#2eba9b"/>
    <path d="M55.86,147.28c.2-3.02,2.62-5.44,5.65-5.63v-3.52c-4.97.2-8.96,4.18-9.17,9.15h3.53Z" fill="#2eba9b"/>
    <path d="M61.5,153.73c-3.02-.2-5.44-2.62-5.63-5.65h-3.52c.2,4.97,4.18,8.96,9.15,9.17v-3.53Z" fill="#2eba9b"/>
    <path d="M67.62,153.78v-12.12h2.35v1.91h.37c.22-.47.6-.9,1.16-1.3.56-.4,1.39-.6,2.49-.6.87,0,1.64.19,2.31.58.67.39,1.21.93,1.59,1.64s.58,1.55.58,2.55v7.35h-2.4v-7.16c0-.99-.25-1.72-.74-2.2-.5-.47-1.18-.71-2.05-.71-.99,0-1.79.33-2.38.98-.6.65-.9,1.6-.9,2.84v6.26h-2.4Z" fill="#191227"/>
    <path d="M124.88,153.78v-15.63h2.4v15.63h-2.4Z" fill="#191227"/>
    <path d="M135.5,153.78c-1.15,0-2.17-.24-3.06-.71-.89-.47-1.59-1.15-2.1-2.03-.51-.88-.77-1.93-.77-3.14v-.35c0-1.21.26-2.25.77-3.13s1.21-1.55,2.1-2.03c.89-.48,1.91-.72,3.06-.72s2.17.24,3.07.72c.9.48,1.6,1.16,2.12,2.03.51.88.77,1.92.77,3.13v.35c0,1.21-.26,2.26-.77,3.14-.51.88-1.22,1.56-2.12,2.03-.9.47-1.92.71-3.07.71ZM135.5,151.65c1.05,0,1.91-.34,2.57-1.01.66-.67.99-1.61.99-2.8v-.21c0-1.19-.33-2.13-.98-2.8-.65-.67-1.51-1.01-2.58-1.01s-1.89.34-2.55,1.01c-.66.67-.99,1.61-.99,2.8v.21c0,1.19.33,2.13.99,2.8.66.67,1.51,1.01,2.55,1.01Z" fill="#191227"/>
    <path d="M144.69,151.77l-1.63-10.1h2.4l1.44,10.51h.37l1.64-8.61c.21-1.11,1.18-1.91,2.3-1.91s2.09.8,2.3,1.91l1.62,8.6h.37l1.44-10.51h2.4l-1.63,10.1c-.19,1.16-1.19,2.01-2.36,2.01s-2.14-.82-2.35-1.95l-1.61-8.54h-.37l-1.61,8.54c-.21,1.13-1.2,1.95-2.35,1.95s-2.18-.85-2.36-2.01h0Z" fill="#191227"/>
    <path d="M117.36,138.8c-.41.42-.62.98-.62,1.68v13.3h2.4v-10.08h3.43v-2.03h-1.66l-1.35,1.35h-.42v-2.15c0-.47.22-.7.68-.7h2.75v-2.01h-3.52c-.72,0-1.28.21-1.69.63Z" fill="#191227"/>
    <path d="M111.12,151.03v-6.37h-2.41v6.79c0,.7.21,1.26.62,1.68.41.42.97.63,1.67.63h3.18v-2.03h-2.41c-.44,0-.65-.23-.65-.7h0Z" fill="#191227"/>
    <path d="M96.69,150.5c-.67.79-1.65,1.18-2.68,1.18h-7.3c-.97,0-1.77-.3-2.42-.9-.04-.04-.08-.07-.12-.11-.04-.04-.08-.08-.11-.12-.09-.1-.17-.2-.24-.31-.31-.47-.49-1.03-.54-1.68,0-.06,0-.12,0-.19h8.85v-.91c0-1.17-.23-2.19-.7-3.06s-1.12-1.55-1.95-2.04c-.83-.49-1.8-.74-2.91-.74s-2.13.25-2.99.75c-.43.25-.81.55-1.15.89-.04.04-.08.09-.12.13-.12.14-.24.28-.35.42-.14.2-.28.41-.4.63-.49.89-.74,1.93-.74,3.13v.28c0,1.2.25,2.24.74,3.13.49.89,1.17,1.58,2.04,2.07.87.49,1.89.74,3.06.74h7.14c.65,0,2.02-.12,2.83-.57.9-.5,1.45-1.11,2.37-2.2l.35-.5-1.32-1.87-1.34,1.85h0ZM83.31,146.52c.02-.16.05-.31.09-.46.04-.15.08-.29.14-.43.18-.45.45-.83.81-1.14.57-.5,1.3-.75,2.21-.75s1.63.25,2.19.75c.56.5.88,1.18.96,2.03h-4.81l-1.23,1.23h-.41c0-.35,0-.81.05-1.23Z" fill="#191227"/>
    <path d="M111.12,141.63v-3.5h-2.41v3.5h-2.26c-.65,0-2.02.12-2.83.57-.9.5-1.63,1.15-2.54,2.24l-1.01,1.39c-.42-.61-.76-1.1-.92-1.32-.82-1.16-1.62-1.76-2.52-2.26-.81-.45-2.1-.57-2.75-.57h-.45v2.1h.65c1.04,0,1.94.39,2.61,1.18l1.97,2.83h0s1.2,1.72,1.2,1.72l1.02,1.47c.91,1.09,1.64,1.74,2.54,2.24.81.45,2.17.57,2.83.57h.45v-2.1h-.65c-1.04,0-2.04-.37-2.68-1.18-.25-.31-1.12-1.55-2.01-2.84l1.92-2.74c.67-.79,1.95-1.25,2.99-1.25h8.19v-2.03h-3.33Z" fill="#191227"/>
  </g>
  <circle id="path3447-6-2-4-20" data-name="path3447-6-2-4" cx="384.63" cy="62.31" r="3.34" fill="#fff" stroke="#010101" stroke-linecap="round" stroke-miterlimit="15.12" stroke-width="3"/>
  <text transform="translate(402.95 43.4)" fill="#231f20" font-size="8"><tspan font-family="MavenPro-Bold, &apos;Maven Pro&apos;" font-variation-settings="&apos;wght&apos; 700" font-weight="700"><tspan x="0" y="0">BAM QC</tspan></tspan><tspan font-family="MavenPro-Regular, &apos;Maven Pro&apos;" font-variation-settings="&apos;wght&apos; 400"><tspan x=".15" y="9.6">Cramino</tspan></tspan><tspan font-family="MavenPro-Regular, &apos;Maven Pro&apos;" font-variation-settings="&apos;wght&apos; 400"><tspan x="-2.33" y="19.2">Mosdepth</tspan></tspan><tspan font-family="MavenPro-Regular, &apos;Maven Pro&apos;" font-variation-settings="&apos;wght&apos; 400"><tspan x="-1.28" y="28.8">SAMtools</tspan></tspan></text>
  <text transform="translate(318.08 205.18)" fill="#231f20" font-family="MavenPro-Bold, &apos;Maven Pro&apos;" font-size="8" font-variation-settings="&apos;wght&apos; 700" font-weight="700"><tspan x="0" y="0">Longphase </tspan><tspan x="5.98" y="9.6">Modcall</tspan></text>
  <circle id="path3447-6-2-4-21" data-name="path3447-6-2-4" cx="339.67" cy="58.97" r="3.34" fill="#fff" stroke="#010101" stroke-linecap="round" stroke-miterlimit="15.12" stroke-width="3"/>
  <text transform="translate(284.59 56.29)" fill="#231f20" font-size="8"><tspan font-family="MavenPro-Bold, &apos;Maven Pro&apos;" font-variation-settings="&apos;wght&apos; 700" font-weight="700"><tspan x="0" y="0">Met</tspan><tspan x="14.57" y="0" letter-spacing="-.02em">h</tspan><tspan x="19.29" y="0">ylation </tspan></tspan><tspan font-family="MavenPro-Bold, &apos;Maven Pro&apos;" font-variation-settings="&apos;wght&apos; 700" font-weight="700"><tspan x="11.04" y="9.6">Pileup</tspan></tspan><tspan font-family="MavenPro-Regular, &apos;Maven Pro&apos;" font-variation-settings="&apos;wght&apos; 400"><tspan x="10.87" y="19.2">Modkit</tspan></tspan></text>
  <circle id="path3447-6-2-4-22" data-name="path3447-6-2-4" cx="338.35" cy="192.69" r="3.34" fill="#fff" stroke="#010101" stroke-linecap="round" stroke-miterlimit="15.12" stroke-width="3"/>
</svg>